<?xml version="1.0" standalone="no"?><svg xmlns:xlink="http://www.w3.org/1999/xlink" xmlns="http://www.w3.org/2000/svg" viewBox="0 0 1000 750.0055762496376" preserveAspectRatio="xMaxYMax slice"><g transform="scale(1.3940624093859435)"><rect x="0" y="0" width="717.3333333333334" height="538" fill="#ffffff"/><rect x="44.833333333333336" y="44.833333333333336" width="44.833333333333336" height="44.833333333333336" fill="#ffffff"/><rect x="89.66666666666667" y="44.833333333333336" width="44.833333333333336" height="44.833333333333336" fill="#ffffff"/><rect x="224.16666666666669" y="89.66666666666667" width="44.833333333333336" height="44.833333333333336" fill="#ffffff"/><rect x="0" y="134.5" width="44.833333333333336" height="44.833333333333336" fill="#ffffff"/><rect x="22.42" y="134.5" width="22.42" height="22.42" fill="#fad5fd"/><rect x="0" y="156.92" width="22.42" height="22.42" fill="#4992ff"/><rect x="44.833333333333336" y="134.5" width="44.833333333333336" height="44.833333333333336" fill="#ffffff"/><rect x="44.83" y="134.5" width="22.42" height="22.42" fill="#6ca7ff"/><rect x="67.25" y="156.92" width="22.42" height="22.42" fill="#f8c5fd"/><rect x="89.66666666666667" y="134.5" width="44.833333333333336" height="44.833333333333336" fill="#ffffff"/><rect x="89.67" y="156.92" width="22.42" height="22.42" fill="#ea53f8"/><rect x="224.16666666666669" y="134.5" width="44.833333333333336" height="44.833333333333336" fill="#ffffff"/><rect x="246.58" y="134.5" width="22.42" height="22.42" fill="#76adff"/><rect x="246.58" y="156.92" width="22.42" height="22.42" fill="#e3eeff"/><rect x="313.83333333333337" y="134.5" width="44.833333333333336" height="44.833333333333336" fill="#ffffff"/><rect x="336.25" y="134.5" width="22.42" height="22.42" fill="#f083fa"/><rect x="493.1666666666667" y="134.5" width="44.833333333333336" height="44.833333333333336" fill="#ffffff"/><rect x="582.8333333333334" y="134.5" width="44.833333333333336" height="44.833333333333336" fill="#ffffff"/><rect x="582.83" y="134.5" width="22.42" height="22.42" fill="#f080fa"/><rect x="0" y="179.33333333333334" width="44.833333333333336" height="44.833333333333336" fill="#ffffff"/><rect x="22.42" y="201.75" width="22.42" height="22.42" fill="#086bff"/><rect x="44.833333333333336" y="179.33333333333334" width="44.833333333333336" height="44.833333333333336" fill="#ffffff"/><rect x="44.83" y="179.33" width="22.42" height="22.42" fill="#fad3fd"/><rect x="89.66666666666667" y="179.33333333333334" width="44.833333333333336" height="44.833333333333336" fill="#ffffff"/><rect x="89.67" y="179.33" width="22.42" height="22.42" fill="#5a9cff"/><rect x="112.08" y="179.33" width="22.42" height="22.42" fill="#f9d0fd"/><rect x="269" y="179.33333333333334" width="44.833333333333336" height="44.833333333333336" fill="#ffffff"/><rect x="291.42" y="179.33" width="22.42" height="22.42" fill="#92beff"/><rect x="358.6666666666667" y="179.33333333333334" width="44.833333333333336" height="44.833333333333336" fill="#ffffff"/><rect x="358.67" y="201.75" width="22.42" height="22.42" fill="#f4a5fb"/><rect x="403.5" y="179.33333333333334" width="44.833333333333336" height="44.833333333333336" fill="#ffffff"/><rect x="403.5" y="179.33" width="22.42" height="22.42" fill="#c7deff"/><rect x="425.92" y="179.33" width="22.42" height="22.42" fill="#8ebbff"/><rect x="403.5" y="201.75" width="22.42" height="22.42" fill="#cde1ff"/><rect x="672.5" y="179.33333333333334" width="44.833333333333336" height="44.833333333333336" fill="#ffffff"/><rect x="44.833333333333336" y="224.16666666666669" width="44.833333333333336" height="44.833333333333336" fill="#ffffff"/><rect x="44.83" y="224.17" width="22.42" height="22.42" fill="#87b7ff"/><rect x="44.83" y="246.58" width="22.42" height="22.42" fill="#ef77fa"/><rect x="134.5" y="224.16666666666669" width="44.833333333333336" height="44.833333333333336" fill="#ffffff"/><rect x="134.5" y="224.17" width="22.42" height="22.42" fill="#4e95ff"/><rect x="156.92" y="224.17" width="22.42" height="22.42" fill="#fafcff"/><rect x="156.92" y="246.58" width="22.42" height="22.42" fill="#ec5ef9"/><rect x="179.33333333333334" y="224.16666666666669" width="44.833333333333336" height="44.833333333333336" fill="#ffffff"/><rect x="179.33" y="224.17" width="22.42" height="22.42" fill="#6ba6ff"/><rect x="201.75" y="246.58" width="22.42" height="22.42" fill="#0d6eff"/><rect x="224.16666666666669" y="224.16666666666669" width="44.833333333333336" height="44.833333333333336" fill="#ffffff"/><rect x="224.17" y="224.17" width="22.42" height="22.42" fill="#1e78ff"/><rect x="269" y="224.16666666666669" width="44.833333333333336" height="44.833333333333336" fill="#ffffff"/><rect x="269" y="224.17" width="22.42" height="22.42" fill="#fdf1fe"/><rect x="269" y="246.58" width="22.42" height="22.42" fill="#ef7dfa"/><rect x="291.42" y="246.58" width="22.42" height="22.42" fill="#cadfff"/><rect x="358.6666666666667" y="224.16666666666669" width="44.833333333333336" height="44.833333333333336" fill="#ffffff"/><rect x="358.67" y="224.17" width="22.42" height="22.42" fill="#f18afa"/><rect x="358.67" y="246.58" width="22.42" height="22.42" fill="#f1f7ff"/><rect x="448.33333333333337" y="224.16666666666669" width="44.833333333333336" height="44.833333333333336" fill="#ffffff"/><rect x="448.33" y="246.58" width="22.42" height="22.42" fill="#f8fbff"/><rect x="493.1666666666667" y="224.16666666666669" width="44.833333333333336" height="44.833333333333336" fill="#ffffff"/><rect x="515.58" y="224.17" width="22.42" height="22.42" fill="#ea56f8"/><rect x="515.58" y="246.58" width="22.42" height="22.42" fill="#f8c2fd"/><rect x="538" y="224.16666666666669" width="44.833333333333336" height="44.833333333333336" fill="#ffffff"/><rect x="560.42" y="224.17" width="22.42" height="22.42" fill="#ed6ef9"/><rect x="538" y="246.58" width="22.42" height="22.42" fill="#94bfff"/><rect x="582.8333333333334" y="224.16666666666669" width="44.833333333333336" height="44.833333333333336" fill="#ffffff"/><rect x="582.83" y="224.17" width="22.42" height="22.42" fill="#f7bafc"/><rect x="605.25" y="224.17" width="22.42" height="22.42" fill="#f18dfa"/><rect x="582.83" y="246.58" width="22.42" height="22.42" fill="#7db1ff"/><rect x="672.5" y="224.16666666666669" width="44.833333333333336" height="44.833333333333336" fill="#ffffff"/><rect x="694.92" y="246.58" width="22.42" height="22.42" fill="#85b6ff"/><rect x="0" y="269" width="44.833333333333336" height="44.833333333333336" fill="#ffffff"/><rect x="0" y="291.42" width="22.42" height="22.42" fill="#cbe0ff"/><rect x="22.42" y="291.42" width="22.42" height="22.42" fill="#e0ecff"/><rect x="44.833333333333336" y="269" width="44.833333333333336" height="44.833333333333336" fill="#ffffff"/><rect x="44.83" y="269" width="22.42" height="22.42" fill="#fdf1fe"/><rect x="67.25" y="269" width="22.42" height="22.42" fill="#438eff"/><rect x="67.25" y="291.42" width="22.42" height="22.42" fill="#f7bffc"/><rect x="89.66666666666667" y="269" width="44.833333333333336" height="44.833333333333336" fill="#ffffff"/><rect x="89.67" y="269" width="22.42" height="22.42" fill="#77adff"/><rect x="89.67" y="291.42" width="22.42" height="22.42" fill="#95c0ff"/><rect x="112.08" y="291.42" width="22.42" height="22.42" fill="#aeceff"/><rect x="179.33333333333334" y="269" width="44.833333333333336" height="44.833333333333336" fill="#ffffff"/><rect x="201.75" y="269" width="22.42" height="22.42" fill="#67a4ff"/><rect x="179.33" y="291.42" width="22.42" height="22.42" fill="#3686ff"/><rect x="201.75" y="291.42" width="22.42" height="22.42" fill="#f5f9ff"/><rect x="224.16666666666669" y="269" width="44.833333333333336" height="44.833333333333336" fill="#ffffff"/><rect x="246.58" y="269" width="22.42" height="22.42" fill="#eb57f8"/><rect x="224.17" y="291.42" width="22.42" height="22.42" fill="#fce4fe"/><rect x="403.5" y="269" width="44.833333333333336" height="44.833333333333336" fill="#ffffff"/><rect x="425.92" y="269" width="22.42" height="22.42" fill="#fce6fe"/><rect x="403.5" y="291.42" width="22.42" height="22.42" fill="#fce6fe"/><rect x="448.33333333333337" y="269" width="44.833333333333336" height="44.833333333333336" fill="#ffffff"/><rect x="448.33" y="269" width="22.42" height="22.42" fill="#a0c6ff"/><rect x="470.75" y="269" width="22.42" height="22.42" fill="#5599ff"/><rect x="627.6666666666667" y="269" width="44.833333333333336" height="44.833333333333336" fill="#ffffff"/><rect x="627.67" y="269" width="22.42" height="22.42" fill="#6ba6ff"/><rect x="650.08" y="269" width="22.42" height="22.42" fill="#8fbcff"/><rect x="627.67" y="291.42" width="22.42" height="22.42" fill="#ffffff"/><rect x="650.08" y="291.42" width="22.42" height="22.42" fill="#5398ff"/><rect x="0" y="313.83333333333337" width="44.833333333333336" height="44.833333333333336" fill="#ffffff"/><rect x="0" y="313.83" width="22.42" height="22.42" fill="#fdeffe"/><rect x="22.42" y="313.83" width="22.42" height="22.42" fill="#f5aefc"/><rect x="22.42" y="336.25" width="22.42" height="22.42" fill="#e2edff"/><rect x="44.833333333333336" y="313.83333333333337" width="44.833333333333336" height="44.833333333333336" fill="#ffffff"/><rect x="134.5" y="313.83333333333337" width="44.833333333333336" height="44.833333333333336" fill="#ffffff"/><rect x="134.5" y="313.83" width="22.42" height="22.42" fill="#76adff"/><rect x="134.5" y="336.25" width="22.42" height="22.42" fill="#fbdefe"/><rect x="156.92" y="336.25" width="22.42" height="22.42" fill="#fad8fd"/><rect x="179.33333333333334" y="313.83333333333337" width="44.833333333333336" height="44.833333333333336" fill="#ffffff"/><rect x="201.75" y="313.83" width="22.42" height="22.42" fill="#5297ff"/><rect x="179.33" y="336.25" width="22.42" height="22.42" fill="#eb5bf8"/><rect x="201.75" y="336.25" width="22.42" height="22.42" fill="#fffbff"/><rect x="269" y="313.83333333333337" width="44.833333333333336" height="44.833333333333336" fill="#ffffff"/><rect x="291.42" y="313.83" width="22.42" height="22.42" fill="#9dc4ff"/><rect x="269" y="336.25" width="22.42" height="22.42" fill="#8cbaff"/><rect x="291.42" y="336.25" width="22.42" height="22.42" fill="#8ab9ff"/><rect x="313.83333333333337" y="313.83333333333337" width="44.833333333333336" height="44.833333333333336" fill="#ffffff"/><rect x="313.83" y="336.25" width="22.42" height="22.42" fill="#ee6ff9"/><rect x="336.25" y="336.25" width="22.42" height="22.42" fill="#ee75f9"/><rect x="358.6666666666667" y="313.83333333333337" width="44.833333333333336" height="44.833333333333336" fill="#ffffff"/><rect x="381.08" y="313.83" width="22.42" height="22.42" fill="#8ab9ff"/><rect x="358.67" y="336.25" width="22.42" height="22.42" fill="#67a4ff"/><rect x="381.08" y="336.25" width="22.42" height="22.42" fill="#1975ff"/><rect x="403.5" y="313.83333333333337" width="44.833333333333336" height="44.833333333333336" fill="#ffffff"/><rect x="403.5" y="313.83" width="22.42" height="22.42" fill="#ee76f9"/><rect x="425.92" y="313.83" width="22.42" height="22.42" fill="#cee1ff"/><rect x="403.5" y="336.25" width="22.42" height="22.42" fill="#ea54f8"/><rect x="425.92" y="336.25" width="22.42" height="22.42" fill="#f8c4fd"/><rect x="493.1666666666667" y="313.83333333333337" width="44.833333333333336" height="44.833333333333336" fill="#ffffff"/><rect x="515.58" y="313.83" width="22.42" height="22.42" fill="#ea54f8"/><rect x="493.17" y="336.25" width="22.42" height="22.42" fill="#a7caff"/><rect x="515.58" y="336.25" width="22.42" height="22.42" fill="#f399fb"/><rect x="538" y="313.83333333333337" width="44.833333333333336" height="44.833333333333336" fill="#ffffff"/><rect x="538" y="313.83" width="22.42" height="22.42" fill="#64a2ff"/><rect x="560.42" y="313.83" width="22.42" height="22.42" fill="#76adff"/><rect x="538" y="336.25" width="22.42" height="22.42" fill="#e7f1ff"/><rect x="582.8333333333334" y="313.83333333333337" width="44.833333333333336" height="44.833333333333336" fill="#ffffff"/><rect x="605.25" y="313.83" width="22.42" height="22.42" fill="#428eff"/><rect x="582.83" y="336.25" width="22.42" height="22.42" fill="#fad8fd"/><rect x="605.25" y="336.25" width="22.42" height="22.42" fill="#fdf0fe"/><rect x="627.6666666666667" y="313.83333333333337" width="44.833333333333336" height="44.833333333333336" fill="#ffffff"/><rect x="627.67" y="313.83" width="22.42" height="22.42" fill="#69a5ff"/><rect x="627.67" y="336.25" width="22.42" height="22.42" fill="#9dc4ff"/><rect x="650.08" y="336.25" width="22.42" height="22.42" fill="#f085fa"/><rect x="672.5" y="313.83333333333337" width="44.833333333333336" height="44.833333333333336" fill="#ffffff"/><rect x="672.5" y="313.83" width="22.42" height="22.42" fill="#fad4fd"/><rect x="694.92" y="313.83" width="22.42" height="22.42" fill="#2d81ff"/><rect x="672.5" y="336.25" width="22.42" height="22.42" fill="#3888ff"/><rect x="694.92" y="336.25" width="22.42" height="22.42" fill="#f4a6fb"/><rect x="0" y="358.6666666666667" width="44.833333333333336" height="44.833333333333336" fill="#ffffff"/><rect x="0" y="358.67" width="22.42" height="22.42" fill="#edf4ff"/><rect x="22.42" y="358.67" width="22.42" height="22.42" fill="#ea54f8"/><rect x="0" y="381.08" width="22.42" height="22.42" fill="#5599ff"/><rect x="22.42" y="381.08" width="22.42" height="22.42" fill="#458fff"/><rect x="44.833333333333336" y="358.6666666666667" width="44.833333333333336" height="44.833333333333336" fill="#ffffff"/><rect x="44.83" y="358.67" width="22.42" height="22.42" fill="#fafcff"/><rect x="67.25" y="358.67" width="22.42" height="22.42" fill="#dae9ff"/><rect x="44.83" y="381.08" width="22.42" height="22.42" fill="#3988ff"/><rect x="67.25" y="381.08" width="22.42" height="22.42" fill="#ec66f9"/><rect x="89.66666666666667" y="358.6666666666667" width="44.833333333333336" height="44.833333333333336" fill="#ffffff"/><rect x="89.67" y="358.67" width="22.42" height="22.42" fill="#fdebfe"/><rect x="112.08" y="358.67" width="22.42" height="22.42" fill="#85b6ff"/><rect x="89.67" y="381.08" width="22.42" height="22.42" fill="#fef4ff"/><rect x="112.08" y="381.08" width="22.42" height="22.42" fill="#f295fb"/><rect x="134.5" y="358.6666666666667" width="44.833333333333336" height="44.833333333333336" fill="#ffffff"/><rect x="156.92" y="358.67" width="22.42" height="22.42" fill="#86b6ff"/><rect x="134.5" y="381.08" width="22.42" height="22.42" fill="#599cff"/><rect x="179.33333333333334" y="358.6666666666667" width="44.833333333333336" height="44.833333333333336" fill="#ffffff"/><rect x="179.33" y="358.67" width="22.42" height="22.42" fill="#3686ff"/><rect x="201.75" y="358.67" width="22.42" height="22.42" fill="#ed67f9"/><rect x="201.75" y="381.08" width="22.42" height="22.42" fill="#f4a3fb"/><rect x="224.16666666666669" y="358.6666666666667" width="44.833333333333336" height="44.833333333333336" fill="#ffffff"/><rect x="224.17" y="358.67" width="22.42" height="22.42" fill="#4b93ff"/><rect x="313.83333333333337" y="358.6666666666667" width="44.833333333333336" height="44.833333333333336" fill="#ffffff"/><rect x="313.83" y="358.67" width="22.42" height="22.42" fill="#fef5ff"/><rect x="313.83" y="381.08" width="22.42" height="22.42" fill="#d1e3ff"/><rect x="336.25" y="381.08" width="22.42" height="22.42" fill="#f18bfa"/><rect x="358.6666666666667" y="358.6666666666667" width="44.833333333333336" height="44.833333333333336" fill="#ffffff"/><rect x="381.08" y="358.67" width="22.42" height="22.42" fill="#fad5fd"/><rect x="381.08" y="381.08" width="22.42" height="22.42" fill="#fdecfe"/><rect x="403.5" y="358.6666666666667" width="44.833333333333336" height="44.833333333333336" fill="#ffffff"/><rect x="403.5" y="358.67" width="22.42" height="22.42" fill="#fce5fe"/><rect x="425.92" y="358.67" width="22.42" height="22.42" fill="#448fff"/><rect x="403.5" y="381.08" width="22.42" height="22.42" fill="#eaf2ff"/><rect x="448.33333333333337" y="358.6666666666667" width="44.833333333333336" height="44.833333333333336" fill="#ffffff"/><rect x="470.75" y="358.67" width="22.42" height="22.42" fill="#7aafff"/><rect x="470.75" y="381.08" width="22.42" height="22.42" fill="#f5aafc"/><rect x="493.1666666666667" y="358.6666666666667" width="44.833333333333336" height="44.833333333333336" fill="#ffffff"/><rect x="493.17" y="358.67" width="22.42" height="22.42" fill="#7cb0ff"/><rect x="515.58" y="358.67" width="22.42" height="22.42" fill="#fbe2fe"/><rect x="493.17" y="381.08" width="22.42" height="22.42" fill="#fdeefe"/><rect x="515.58" y="381.08" width="22.42" height="22.42" fill="#fbe1fe"/><rect x="538" y="358.6666666666667" width="44.833333333333336" height="44.833333333333336" fill="#ffffff"/><rect x="538" y="358.67" width="22.42" height="22.42" fill="#458fff"/><rect x="538" y="381.08" width="22.42" height="22.42" fill="#f9cafd"/><rect x="560.42" y="381.08" width="22.42" height="22.42" fill="#fbdafe"/><rect x="582.8333333333334" y="358.6666666666667" width="44.833333333333336" height="44.833333333333336" fill="#ffffff"/><rect x="582.83" y="358.67" width="22.42" height="22.42" fill="#428eff"/><rect x="605.25" y="358.67" width="22.42" height="22.42" fill="#1875ff"/><rect x="582.83" y="381.08" width="22.42" height="22.42" fill="#eef5ff"/><rect x="605.25" y="381.08" width="22.42" height="22.42" fill="#adceff"/><rect x="627.6666666666667" y="358.6666666666667" width="44.833333333333336" height="44.833333333333336" fill="#ffffff"/><rect x="627.67" y="358.67" width="22.42" height="22.42" fill="#fcfdff"/><rect x="650.08" y="358.67" width="22.42" height="22.42" fill="#82b4ff"/><rect x="627.67" y="381.08" width="22.42" height="22.42" fill="#f7bffc"/><rect x="650.08" y="381.08" width="22.42" height="22.42" fill="#ee76f9"/><rect x="672.5" y="358.6666666666667" width="44.833333333333336" height="44.833333333333336" fill="#ffffff"/><rect x="672.5" y="358.67" width="22.42" height="22.42" fill="#f8c7fd"/><rect x="694.92" y="358.67" width="22.42" height="22.42" fill="#f083fa"/><rect x="672.5" y="381.08" width="22.42" height="22.42" fill="#f18ffa"/><rect x="694.92" y="381.08" width="22.42" height="22.42" fill="#6ea8ff"/><rect x="0" y="403.5" width="44.833333333333336" height="44.833333333333336" fill="#ffffff"/><rect x="0" y="403.5" width="22.42" height="22.42" fill="#3787ff"/><rect x="22.42" y="403.5" width="22.42" height="22.42" fill="#7eb2ff"/><rect x="0" y="425.92" width="22.42" height="22.42" fill="#f3a0fb"/><rect x="22.42" y="425.92" width="22.42" height="22.42" fill="#448fff"/><rect x="44.833333333333336" y="403.5" width="44.833333333333336" height="44.833333333333336" fill="#ffffff"/><rect x="44.83" y="403.5" width="22.42" height="22.42" fill="#deebff"/><rect x="67.25" y="403.5" width="22.42" height="22.42" fill="#b6d3ff"/><rect x="44.83" y="425.92" width="22.42" height="22.42" fill="#f39cfb"/><rect x="67.25" y="425.92" width="22.42" height="22.42" fill="#f8c6fd"/><rect x="89.66666666666667" y="403.5" width="44.833333333333336" height="44.833333333333336" fill="#ffffff"/><rect x="89.67" y="403.5" width="22.42" height="22.42" fill="#fbdafe"/><rect x="112.08" y="403.5" width="22.42" height="22.42" fill="#458fff"/><rect x="89.67" y="425.92" width="22.42" height="22.42" fill="#ef7efa"/><rect x="112.08" y="425.92" width="22.42" height="22.42" fill="#fdecfe"/><rect x="179.33333333333334" y="403.5" width="44.833333333333336" height="44.833333333333336" fill="#ffffff"/><rect x="179.33" y="403.5" width="22.42" height="22.42" fill="#accdff"/><rect x="201.75" y="403.5" width="22.42" height="22.42" fill="#f080fa"/><rect x="179.33" y="425.92" width="22.42" height="22.42" fill="#edf4ff"/><rect x="201.75" y="425.92" width="22.42" height="22.42" fill="#f5f9ff"/><rect x="224.16666666666669" y="403.5" width="44.833333333333336" height="44.833333333333336" fill="#ffffff"/><rect x="224.17" y="403.5" width="22.42" height="22.42" fill="#f18afa"/><rect x="224.17" y="425.92" width="22.42" height="22.42" fill="#eb5cf8"/><rect x="246.58" y="425.92" width="22.42" height="22.42" fill="#eff5ff"/><rect x="313.83333333333337" y="403.5" width="44.833333333333336" height="44.833333333333336" fill="#ffffff"/><rect x="313.83" y="403.5" width="22.42" height="22.42" fill="#3c8aff"/><rect x="336.25" y="403.5" width="22.42" height="22.42" fill="#f189fa"/><rect x="313.83" y="425.92" width="22.42" height="22.42" fill="#f6b2fc"/><rect x="336.25" y="425.92" width="22.42" height="22.42" fill="#f6b2fc"/><rect x="358.6666666666667" y="403.5" width="44.833333333333336" height="44.833333333333336" fill="#ffffff"/><rect x="358.67" y="403.5" width="22.42" height="22.42" fill="#c0d9ff"/><rect x="381.08" y="403.5" width="22.42" height="22.42" fill="#f39ffb"/><rect x="358.67" y="425.92" width="22.42" height="22.42" fill="#b7d4ff"/><rect x="381.08" y="425.92" width="22.42" height="22.42" fill="#f9cffd"/><rect x="403.5" y="403.5" width="44.833333333333336" height="44.833333333333336" fill="#ffffff"/><rect x="403.5" y="403.5" width="22.42" height="22.42" fill="#84b5ff"/><rect x="425.92" y="403.5" width="22.42" height="22.42" fill="#2c81ff"/><rect x="403.5" y="425.92" width="22.42" height="22.42" fill="#b3d1ff"/><rect x="425.92" y="425.92" width="22.42" height="22.42" fill="#3f8cff"/><rect x="448.33333333333337" y="403.5" width="44.833333333333336" height="44.833333333333336" fill="#ffffff"/><rect x="448.33" y="403.5" width="22.42" height="22.42" fill="#3687ff"/><rect x="470.75" y="403.5" width="22.42" height="22.42" fill="#97c0ff"/><rect x="448.33" y="425.92" width="22.42" height="22.42" fill="#f7b9fc"/><rect x="470.75" y="425.92" width="22.42" height="22.42" fill="#65a3ff"/><rect x="493.1666666666667" y="403.5" width="44.833333333333336" height="44.833333333333336" fill="#ffffff"/><rect x="493.17" y="403.5" width="22.42" height="22.42" fill="#92beff"/><rect x="515.58" y="403.5" width="22.42" height="22.42" fill="#e4efff"/><rect x="493.17" y="425.92" width="22.42" height="22.42" fill="#b2d1ff"/><rect x="515.58" y="425.92" width="22.42" height="22.42" fill="#ee75f9"/><rect x="538" y="403.5" width="44.833333333333336" height="44.833333333333336" fill="#ffffff"/><rect x="538" y="403.5" width="22.42" height="22.42" fill="#4d94ff"/><rect x="560.42" y="403.5" width="22.42" height="22.42" fill="#9bc3ff"/><rect x="538" y="425.92" width="22.42" height="22.42" fill="#f189fa"/><rect x="560.42" y="425.92" width="22.42" height="22.42" fill="#9dc4ff"/><rect x="582.8333333333334" y="403.5" width="44.833333333333336" height="44.833333333333336" fill="#ffffff"/><rect x="582.83" y="403.5" width="22.42" height="22.42" fill="#a1c6ff"/><rect x="605.25" y="403.5" width="22.42" height="22.42" fill="#4791ff"/><rect x="582.83" y="425.92" width="22.42" height="22.42" fill="#fcfdff"/><rect x="605.25" y="425.92" width="22.42" height="22.42" fill="#74acff"/><rect x="627.6666666666667" y="403.5" width="44.833333333333336" height="44.833333333333336" fill="#ffffff"/><rect x="627.67" y="403.5" width="22.42" height="22.42" fill="#ffffff"/><rect x="650.08" y="403.5" width="22.42" height="22.42" fill="#70a9ff"/><rect x="627.67" y="425.92" width="22.42" height="22.42" fill="#f8c2fd"/><rect x="650.08" y="425.92" width="22.42" height="22.42" fill="#ee70f9"/><rect x="672.5" y="403.5" width="44.833333333333336" height="44.833333333333336" fill="#ffffff"/><rect x="672.5" y="403.5" width="22.42" height="22.42" fill="#ee76f9"/><rect x="672.5" y="425.92" width="22.42" height="22.42" fill="#81b3ff"/><rect x="0" y="448.33333333333337" width="44.833333333333336" height="44.833333333333336" fill="#ffffff"/><rect x="0" y="448.33" width="22.42" height="22.42" fill="#408cff"/><rect x="22.42" y="448.33" width="22.42" height="22.42" fill="#6ea8ff"/><rect x="0" y="470.75" width="22.42" height="22.42" fill="#6ba6ff"/><rect x="22.42" y="470.75" width="22.42" height="22.42" fill="#c2daff"/><rect x="44.833333333333336" y="448.33333333333337" width="44.833333333333336" height="44.833333333333336" fill="#ffffff"/><rect x="44.83" y="448.33" width="22.42" height="22.42" fill="#3b8aff"/><rect x="67.25" y="448.33" width="22.42" height="22.42" fill="#f4a1fb"/><rect x="44.83" y="470.75" width="22.42" height="22.42" fill="#287eff"/><rect x="67.25" y="470.75" width="22.42" height="22.42" fill="#ee74f9"/><rect x="89.66666666666667" y="448.33333333333337" width="44.833333333333336" height="44.833333333333336" fill="#ffffff"/><rect x="89.67" y="448.33" width="22.42" height="22.42" fill="#adceff"/><rect x="112.08" y="448.33" width="22.42" height="22.42" fill="#e1edff"/><rect x="89.67" y="470.75" width="22.42" height="22.42" fill="#ee75f9"/><rect x="112.08" y="470.75" width="22.42" height="22.42" fill="#cce0ff"/><rect x="134.5" y="448.33333333333337" width="44.833333333333336" height="44.833333333333336" fill="#ffffff"/><rect x="134.5" y="448.33" width="22.42" height="22.42" fill="#fbdcfe"/><rect x="156.92" y="448.33" width="22.42" height="22.42" fill="#f4a4fb"/><rect x="134.5" y="470.75" width="22.42" height="22.42" fill="#83b4ff"/><rect x="156.92" y="470.75" width="22.42" height="22.42" fill="#d5e6ff"/><rect x="179.33333333333334" y="448.33333333333337" width="44.833333333333336" height="44.833333333333336" fill="#ffffff"/><rect x="179.33" y="448.33" width="22.42" height="22.42" fill="#ebf3ff"/><rect x="201.75" y="448.33" width="22.42" height="22.42" fill="#b2d1ff"/><rect x="179.33" y="470.75" width="22.42" height="22.42" fill="#8dbbff"/><rect x="201.75" y="470.75" width="22.42" height="22.42" fill="#82b4ff"/><rect x="224.16666666666669" y="448.33333333333337" width="44.833333333333336" height="44.833333333333336" fill="#ffffff"/><rect x="224.17" y="448.33" width="22.42" height="22.42" fill="#5e9eff"/><rect x="246.58" y="448.33" width="22.42" height="22.42" fill="#ed67f9"/><rect x="224.17" y="470.75" width="22.42" height="22.42" fill="#96c0ff"/><rect x="246.58" y="470.75" width="22.42" height="22.42" fill="#93beff"/><rect x="269" y="448.33333333333337" width="44.833333333333336" height="44.833333333333336" fill="#ffffff"/><rect x="269" y="448.33" width="22.42" height="22.42" fill="#80b3ff"/><rect x="291.42" y="448.33" width="22.42" height="22.42" fill="#eb5bf8"/><rect x="269" y="470.75" width="22.42" height="22.42" fill="#f4a8fb"/><rect x="291.42" y="470.75" width="22.42" height="22.42" fill="#f18bfa"/><rect x="313.83333333333337" y="448.33333333333337" width="44.833333333333336" height="44.833333333333336" fill="#ffffff"/><rect x="313.83" y="448.33" width="22.42" height="22.42" fill="#ec66f9"/><rect x="336.25" y="448.33" width="22.42" height="22.42" fill="#2b80ff"/><rect x="313.83" y="470.75" width="22.42" height="22.42" fill="#cadfff"/><rect x="336.25" y="470.75" width="22.42" height="22.42" fill="#f190fa"/><rect x="358.6666666666667" y="448.33333333333337" width="44.833333333333336" height="44.833333333333336" fill="#ffffff"/><rect x="358.67" y="448.33" width="22.42" height="22.42" fill="#f7bbfc"/><rect x="381.08" y="448.33" width="22.42" height="22.42" fill="#fef7ff"/><rect x="358.67" y="470.75" width="22.42" height="22.42" fill="#ec62f9"/><rect x="381.08" y="470.75" width="22.42" height="22.42" fill="#0a6cff"/><rect x="403.5" y="448.33333333333337" width="44.833333333333336" height="44.833333333333336" fill="#ffffff"/><rect x="403.5" y="448.33" width="22.42" height="22.42" fill="#f188fa"/><rect x="425.92" y="448.33" width="22.42" height="22.42" fill="#fad7fd"/><rect x="403.5" y="470.75" width="22.42" height="22.42" fill="#7eb2ff"/><rect x="425.92" y="470.75" width="22.42" height="22.42" fill="#f6b4fc"/><rect x="448.33333333333337" y="448.33333333333337" width="44.833333333333336" height="44.833333333333336" fill="#ffffff"/><rect x="448.33" y="448.33" width="22.42" height="22.42" fill="#c5dcff"/><rect x="470.75" y="448.33" width="22.42" height="22.42" fill="#a9cbff"/><rect x="448.33" y="470.75" width="22.42" height="22.42" fill="#ec65f9"/><rect x="470.75" y="470.75" width="22.42" height="22.42" fill="#ed6df9"/><rect x="493.1666666666667" y="448.33333333333337" width="44.833333333333336" height="44.833333333333336" fill="#ffffff"/><rect x="493.17" y="448.33" width="22.42" height="22.42" fill="#ee6ff9"/><rect x="515.58" y="448.33" width="22.42" height="22.42" fill="#73abff"/><rect x="493.17" y="470.75" width="22.42" height="22.42" fill="#fce8fe"/><rect x="515.58" y="470.75" width="22.42" height="22.42" fill="#8dbaff"/><rect x="538" y="448.33333333333337" width="44.833333333333336" height="44.833333333333336" fill="#ffffff"/><rect x="538" y="448.33" width="22.42" height="22.42" fill="#fdeefe"/><rect x="560.42" y="448.33" width="22.42" height="22.42" fill="#f4f8ff"/><rect x="538" y="470.75" width="22.42" height="22.42" fill="#fbddfe"/><rect x="560.42" y="470.75" width="22.42" height="22.42" fill="#fffdff"/><rect x="582.8333333333334" y="448.33333333333337" width="44.833333333333336" height="44.833333333333336" fill="#ffffff"/><rect x="582.83" y="448.33" width="22.42" height="22.42" fill="#f9cdfd"/><rect x="605.25" y="448.33" width="22.42" height="22.42" fill="#a4c8ff"/><rect x="582.83" y="470.75" width="22.42" height="22.42" fill="#ed6ff9"/><rect x="605.25" y="470.75" width="22.42" height="22.42" fill="#c7deff"/><rect x="627.6666666666667" y="448.33333333333337" width="44.833333333333336" height="44.833333333333336" fill="#ffffff"/><rect x="627.67" y="448.33" width="22.42" height="22.42" fill="#f086fa"/><rect x="650.08" y="448.33" width="22.42" height="22.42" fill="#f085fa"/><rect x="627.67" y="470.75" width="22.42" height="22.42" fill="#f18afa"/><rect x="650.08" y="470.75" width="22.42" height="22.42" fill="#fdeefe"/><rect x="672.5" y="448.33333333333337" width="44.833333333333336" height="44.833333333333336" fill="#ffffff"/><rect x="672.5" y="448.33" width="22.42" height="22.42" fill="#f297fb"/><rect x="694.92" y="448.33" width="22.42" height="22.42" fill="#eb5df8"/><rect x="672.5" y="470.75" width="22.42" height="22.42" fill="#f293fb"/><rect x="694.92" y="470.75" width="22.42" height="22.42" fill="#f6b7fc"/><rect x="0" y="493.1666666666667" width="44.833333333333336" height="44.833333333333336" fill="#ffffff"/><rect x="0" y="493.17" width="22.42" height="22.42" fill="#dbe9ff"/><rect x="22.42" y="493.17" width="22.42" height="22.42" fill="#f39cfb"/><rect x="0" y="515.58" width="22.42" height="22.42" fill="#ea54f8"/><rect x="22.42" y="515.58" width="22.42" height="22.42" fill="#eef5ff"/><rect x="44.833333333333336" y="493.1666666666667" width="44.833333333333336" height="44.833333333333336" fill="#ffffff"/><rect x="44.83" y="493.17" width="22.42" height="22.42" fill="#63a2ff"/><rect x="67.25" y="493.17" width="22.42" height="22.42" fill="#deebff"/><rect x="44.83" y="515.58" width="22.42" height="22.42" fill="#f1f7ff"/><rect x="67.25" y="515.58" width="22.42" height="22.42" fill="#cbe0ff"/><rect x="89.66666666666667" y="493.1666666666667" width="44.833333333333336" height="44.833333333333336" fill="#ffffff"/><rect x="89.67" y="493.17" width="22.42" height="22.42" fill="#3787ff"/><rect x="112.08" y="493.17" width="22.42" height="22.42" fill="#f7bcfc"/><rect x="89.67" y="515.58" width="22.42" height="22.42" fill="#f6b4fc"/><rect x="112.08" y="515.58" width="22.42" height="22.42" fill="#f9ccfd"/><rect x="134.5" y="493.1666666666667" width="44.833333333333336" height="44.833333333333336" fill="#ffffff"/><rect x="134.5" y="493.17" width="22.42" height="22.42" fill="#f39ffb"/><rect x="156.92" y="493.17" width="22.42" height="22.42" fill="#fef9ff"/><rect x="134.5" y="515.58" width="22.42" height="22.42" fill="#ee76f9"/><rect x="156.92" y="515.58" width="22.42" height="22.42" fill="#f9d0fd"/><rect x="179.33333333333334" y="493.1666666666667" width="44.833333333333336" height="44.833333333333336" fill="#ffffff"/><rect x="179.33" y="493.17" width="22.42" height="22.42" fill="#fbe2fe"/><rect x="201.75" y="493.17" width="22.42" height="22.42" fill="#ec64f9"/><rect x="179.33" y="515.58" width="22.42" height="22.42" fill="#c5dcff"/><rect x="201.75" y="515.58" width="22.42" height="22.42" fill="#f296fb"/><rect x="224.16666666666669" y="493.1666666666667" width="44.833333333333336" height="44.833333333333336" fill="#ffffff"/><rect x="224.17" y="493.17" width="22.42" height="22.42" fill="#8ebbff"/><rect x="246.58" y="493.17" width="22.42" height="22.42" fill="#fdecfe"/><rect x="224.17" y="515.58" width="22.42" height="22.42" fill="#5498ff"/><rect x="246.58" y="515.58" width="22.42" height="22.42" fill="#7eb1ff"/><rect x="269" y="493.1666666666667" width="44.833333333333336" height="44.833333333333336" fill="#ffffff"/><rect x="269" y="493.17" width="22.42" height="22.42" fill="#fef9ff"/><rect x="291.42" y="493.17" width="22.42" height="22.42" fill="#f4a7fb"/><rect x="269" y="515.58" width="22.42" height="22.42" fill="#fce7fe"/><rect x="291.42" y="515.58" width="22.42" height="22.42" fill="#8bbaff"/><rect x="313.83333333333337" y="493.1666666666667" width="44.833333333333336" height="44.833333333333336" fill="#ffffff"/><rect x="313.83" y="493.17" width="22.42" height="22.42" fill="#8bbaff"/><rect x="336.25" y="493.17" width="22.42" height="22.42" fill="#0f6fff"/><rect x="313.83" y="515.58" width="22.42" height="22.42" fill="#dfecff"/><rect x="336.25" y="515.58" width="22.42" height="22.42" fill="#f6faff"/><rect x="358.6666666666667" y="493.1666666666667" width="44.833333333333336" height="44.833333333333336" fill="#ffffff"/><rect x="358.67" y="493.17" width="22.42" height="22.42" fill="#8ebbff"/><rect x="381.08" y="493.17" width="22.42" height="22.42" fill="#fefaff"/><rect x="358.67" y="515.58" width="22.42" height="22.42" fill="#2e81ff"/><rect x="381.08" y="515.58" width="22.42" height="22.42" fill="#fbe0fe"/><rect x="403.5" y="493.1666666666667" width="44.833333333333336" height="44.833333333333336" fill="#ffffff"/><rect x="403.5" y="493.17" width="22.42" height="22.42" fill="#eff5ff"/><rect x="425.92" y="493.17" width="22.42" height="22.42" fill="#dfecff"/><rect x="403.5" y="515.58" width="22.42" height="22.42" fill="#87b7ff"/><rect x="425.92" y="515.58" width="22.42" height="22.42" fill="#f18bfa"/><rect x="448.33333333333337" y="493.1666666666667" width="44.833333333333336" height="44.833333333333336" fill="#ffffff"/><rect x="448.33" y="493.17" width="22.42" height="22.42" fill="#0569ff"/><rect x="470.75" y="493.17" width="22.42" height="22.42" fill="#ec62f9"/><rect x="448.33" y="515.58" width="22.42" height="22.42" fill="#67a4ff"/><rect x="470.75" y="515.58" width="22.42" height="22.42" fill="#2e81ff"/><rect x="493.1666666666667" y="493.1666666666667" width="44.833333333333336" height="44.833333333333336" fill="#ffffff"/><rect x="493.17" y="493.17" width="22.42" height="22.42" fill="#f9cafd"/><rect x="515.58" y="493.17" width="22.42" height="22.42" fill="#ef7efa"/><rect x="493.17" y="515.58" width="22.42" height="22.42" fill="#3686ff"/><rect x="515.58" y="515.58" width="22.42" height="22.42" fill="#adceff"/><rect x="538" y="493.1666666666667" width="44.833333333333336" height="44.833333333333336" fill="#ffffff"/><rect x="538" y="493.17" width="22.42" height="22.42" fill="#ed6ef9"/><rect x="560.42" y="493.17" width="22.42" height="22.42" fill="#f398fb"/><rect x="538" y="515.58" width="22.42" height="22.42" fill="#bfd8ff"/><rect x="560.42" y="515.58" width="22.42" height="22.42" fill="#3586ff"/><rect x="582.8333333333334" y="493.1666666666667" width="44.833333333333336" height="44.833333333333336" fill="#ffffff"/><rect x="582.83" y="493.17" width="22.42" height="22.42" fill="#fbdafe"/><rect x="605.25" y="493.17" width="22.42" height="22.42" fill="#ed6ff9"/><rect x="582.83" y="515.58" width="22.42" height="22.42" fill="#ecf4ff"/><rect x="605.25" y="515.58" width="22.42" height="22.42" fill="#ee75f9"/><rect x="627.6666666666667" y="493.1666666666667" width="44.833333333333336" height="44.833333333333336" fill="#ffffff"/><rect x="627.67" y="493.17" width="22.42" height="22.42" fill="#1f79ff"/><rect x="650.08" y="493.17" width="22.42" height="22.42" fill="#eb5df8"/><rect x="627.67" y="515.58" width="22.42" height="22.42" fill="#ed6ff9"/><rect x="650.08" y="515.58" width="22.42" height="22.42" fill="#ee76f9"/><rect x="672.5" y="493.1666666666667" width="44.833333333333336" height="44.833333333333336" fill="#ffffff"/><rect x="672.5" y="493.17" width="22.42" height="22.42" fill="#247cff"/><rect x="694.92" y="493.17" width="22.42" height="22.42" fill="#ec65f9"/><rect x="672.5" y="515.58" width="22.42" height="22.42" fill="#c0d9ff"/><rect x="694.92" y="515.58" width="22.42" height="22.42" fill="#d4e5ff"/></g></svg>