<?xml version="1.0" standalone="no"?><svg xmlns:xlink="http://www.w3.org/1999/xlink" xmlns="http://www.w3.org/2000/svg" viewBox="0 0 1000 750.0055762496376" preserveAspectRatio="xMaxYMax slice"><g transform="scale(1.3940624093859435)"><rect x="0" y="0" width="717.3333333333334" height="538" fill="#ffffff"/><rect x="538" y="44.833333333333336" width="44.833333333333336" height="44.833333333333336" fill="#ffffff"/><rect x="538" y="67.25" width="22.42" height="22.42" fill="#bfbfbf"/><rect x="44.833333333333336" y="89.66666666666667" width="44.833333333333336" height="44.833333333333336" fill="#ffffff"/><rect x="538" y="89.66666666666667" width="44.833333333333336" height="44.833333333333336" fill="#ffffff"/><rect x="538" y="89.67" width="22.42" height="22.42" fill="#bababa"/><rect x="582.8333333333334" y="89.66666666666667" width="44.833333333333336" height="44.833333333333336" fill="#ffffff"/><rect x="134.5" y="134.5" width="44.833333333333336" height="44.833333333333336" fill="#ffffff"/><rect x="156.92" y="134.5" width="22.42" height="22.42" fill="#f8c8fd"/><rect x="179.33333333333334" y="134.5" width="44.833333333333336" height="44.833333333333336" fill="#ffffff"/><rect x="179.33" y="134.5" width="22.42" height="22.42" fill="#d8d8d8"/><rect x="201.75" y="156.92" width="22.42" height="22.42" fill="#f297fb"/><rect x="269" y="134.5" width="44.833333333333336" height="44.833333333333336" fill="#ffffff"/><rect x="538" y="134.5" width="44.833333333333336" height="44.833333333333336" fill="#ffffff"/><rect x="560.42" y="134.5" width="22.42" height="22.42" fill="#ffffff"/><rect x="582.8333333333334" y="134.5" width="44.833333333333336" height="44.833333333333336" fill="#ffffff"/><rect x="627.6666666666667" y="134.5" width="44.833333333333336" height="44.833333333333336" fill="#ffffff"/><rect x="672.5" y="134.5" width="44.833333333333336" height="44.833333333333336" fill="#ffffff"/><rect x="672.5" y="134.5" width="22.42" height="22.42" fill="#bababa"/><rect x="672.5" y="156.92" width="22.42" height="22.42" fill="#ed68f9"/><rect x="694.92" y="156.92" width="22.42" height="22.42" fill="#f292fb"/><rect x="44.833333333333336" y="179.33333333333334" width="44.833333333333336" height="44.833333333333336" fill="#ffffff"/><rect x="67.25" y="179.33" width="22.42" height="22.42" fill="#d1d1d1"/><rect x="89.66666666666667" y="179.33333333333334" width="44.833333333333336" height="44.833333333333336" fill="#ffffff"/><rect x="89.67" y="179.33" width="22.42" height="22.42" fill="#f18afa"/><rect x="582.8333333333334" y="179.33333333333334" width="44.833333333333336" height="44.833333333333336" fill="#ffffff"/><rect x="582.83" y="179.33" width="22.42" height="22.42" fill="#fffcff"/><rect x="605.25" y="179.33" width="22.42" height="22.42" fill="#f293fb"/><rect x="582.83" y="201.75" width="22.42" height="22.42" fill="#ebebeb"/><rect x="672.5" y="179.33333333333334" width="44.833333333333336" height="44.833333333333336" fill="#ffffff"/><rect x="672.5" y="201.75" width="22.42" height="22.42" fill="#e3e3e3"/><rect x="0" y="224.16666666666669" width="44.833333333333336" height="44.833333333333336" fill="#ffffff"/><rect x="0" y="246.58" width="22.42" height="22.42" fill="#b5b5b5"/><rect x="22.42" y="246.58" width="22.42" height="22.42" fill="#eeeeee"/><rect x="44.833333333333336" y="224.16666666666669" width="44.833333333333336" height="44.833333333333336" fill="#ffffff"/><rect x="67.25" y="224.17" width="22.42" height="22.42" fill="#ededed"/><rect x="44.83" y="246.58" width="22.42" height="22.42" fill="#ea55f8"/><rect x="89.66666666666667" y="224.16666666666669" width="44.833333333333336" height="44.833333333333336" fill="#ffffff"/><rect x="89.67" y="224.17" width="22.42" height="22.42" fill="#ea55f8"/><rect x="89.67" y="246.58" width="22.42" height="22.42" fill="#ed6af9"/><rect x="112.08" y="246.58" width="22.42" height="22.42" fill="#ababab"/><rect x="493.1666666666667" y="224.16666666666669" width="44.833333333333336" height="44.833333333333336" fill="#ffffff"/><rect x="515.58" y="224.17" width="22.42" height="22.42" fill="#f39ffb"/><rect x="538" y="224.16666666666669" width="44.833333333333336" height="44.833333333333336" fill="#ffffff"/><rect x="560.42" y="246.58" width="22.42" height="22.42" fill="#f8c9fd"/><rect x="627.6666666666667" y="224.16666666666669" width="44.833333333333336" height="44.833333333333336" fill="#ffffff"/><rect x="627.67" y="224.17" width="22.42" height="22.42" fill="#eaeaea"/><rect x="650.08" y="224.17" width="22.42" height="22.42" fill="#a6a6a6"/><rect x="672.5" y="224.16666666666669" width="44.833333333333336" height="44.833333333333336" fill="#ffffff"/><rect x="694.92" y="224.17" width="22.42" height="22.42" fill="#f39afb"/><rect x="672.5" y="246.58" width="22.42" height="22.42" fill="#efefef"/><rect x="0" y="269" width="44.833333333333336" height="44.833333333333336" fill="#ffffff"/><rect x="0" y="269" width="22.42" height="22.42" fill="#cccccc"/><rect x="0" y="291.42" width="22.42" height="22.42" fill="#ee73f9"/><rect x="22.42" y="291.42" width="22.42" height="22.42" fill="#bcbcbc"/><rect x="179.33333333333334" y="269" width="44.833333333333336" height="44.833333333333336" fill="#ffffff"/><rect x="179.33" y="269" width="22.42" height="22.42" fill="#f399fb"/><rect x="201.75" y="269" width="22.42" height="22.42" fill="#f4a5fb"/><rect x="179.33" y="291.42" width="22.42" height="22.42" fill="#f5b0fc"/><rect x="224.16666666666669" y="269" width="44.833333333333336" height="44.833333333333336" fill="#ffffff"/><rect x="313.83333333333337" y="269" width="44.833333333333336" height="44.833333333333336" fill="#ffffff"/><rect x="313.83" y="269" width="22.42" height="22.42" fill="#fad4fd"/><rect x="336.25" y="269" width="22.42" height="22.42" fill="#ed69f9"/><rect x="336.25" y="291.42" width="22.42" height="22.42" fill="#b6b6b6"/><rect x="358.6666666666667" y="269" width="44.833333333333336" height="44.833333333333336" fill="#ffffff"/><rect x="358.67" y="269" width="22.42" height="22.42" fill="#f8f8f8"/><rect x="381.08" y="269" width="22.42" height="22.42" fill="#ed67f9"/><rect x="358.67" y="291.42" width="22.42" height="22.42" fill="#b5b5b5"/><rect x="381.08" y="291.42" width="22.42" height="22.42" fill="#f4f4f4"/><rect x="493.1666666666667" y="269" width="44.833333333333336" height="44.833333333333336" fill="#ffffff"/><rect x="515.58" y="291.42" width="22.42" height="22.42" fill="#bcbcbc"/><rect x="538" y="269" width="44.833333333333336" height="44.833333333333336" fill="#ffffff"/><rect x="538" y="269" width="22.42" height="22.42" fill="#ed68f9"/><rect x="560.42" y="291.42" width="22.42" height="22.42" fill="#ed68f9"/><rect x="0" y="313.83333333333337" width="44.833333333333336" height="44.833333333333336" fill="#ffffff"/><rect x="0" y="313.83" width="22.42" height="22.42" fill="#f4a6fb"/><rect x="22.42" y="313.83" width="22.42" height="22.42" fill="#ef7efa"/><rect x="0" y="336.25" width="22.42" height="22.42" fill="#f5acfc"/><rect x="22.42" y="336.25" width="22.42" height="22.42" fill="#fdf2fe"/><rect x="89.66666666666667" y="313.83333333333337" width="44.833333333333336" height="44.833333333333336" fill="#ffffff"/><rect x="89.67" y="313.83" width="22.42" height="22.42" fill="#c0c0c0"/><rect x="89.67" y="336.25" width="22.42" height="22.42" fill="#f4a5fb"/><rect x="112.08" y="336.25" width="22.42" height="22.42" fill="#fef5ff"/><rect x="179.33333333333334" y="313.83333333333337" width="44.833333333333336" height="44.833333333333336" fill="#ffffff"/><rect x="179.33" y="313.83" width="22.42" height="22.42" fill="#cbcbcb"/><rect x="201.75" y="313.83" width="22.42" height="22.42" fill="#c0c0c0"/><rect x="269" y="313.83333333333337" width="44.833333333333336" height="44.833333333333336" fill="#ffffff"/><rect x="291.42" y="313.83" width="22.42" height="22.42" fill="#afafaf"/><rect x="291.42" y="336.25" width="22.42" height="22.42" fill="#acacac"/><rect x="313.83333333333337" y="313.83333333333337" width="44.833333333333336" height="44.833333333333336" fill="#ffffff"/><rect x="313.83" y="313.83" width="22.42" height="22.42" fill="#f5adfc"/><rect x="336.25" y="313.83" width="22.42" height="22.42" fill="#d0d0d0"/><rect x="313.83" y="336.25" width="22.42" height="22.42" fill="#acacac"/><rect x="336.25" y="336.25" width="22.42" height="22.42" fill="#f8c3fd"/><rect x="448.33333333333337" y="313.83333333333337" width="44.833333333333336" height="44.833333333333336" fill="#ffffff"/><rect x="448.33" y="313.83" width="22.42" height="22.42" fill="#e0e0e0"/><rect x="448.33" y="336.25" width="22.42" height="22.42" fill="#f8c7fd"/><rect x="538" y="313.83333333333337" width="44.833333333333336" height="44.833333333333336" fill="#ffffff"/><rect x="538" y="313.83" width="22.42" height="22.42" fill="#b5b5b5"/><rect x="560.42" y="313.83" width="22.42" height="22.42" fill="#f39bfb"/><rect x="538" y="336.25" width="22.42" height="22.42" fill="#ee70f9"/><rect x="582.8333333333334" y="313.83333333333337" width="44.833333333333336" height="44.833333333333336" fill="#ffffff"/><rect x="582.83" y="313.83" width="22.42" height="22.42" fill="#fffdff"/><rect x="605.25" y="313.83" width="22.42" height="22.42" fill="#f8c1fd"/><rect x="582.83" y="336.25" width="22.42" height="22.42" fill="#fffcff"/><rect x="627.6666666666667" y="313.83333333333337" width="44.833333333333336" height="44.833333333333336" fill="#ffffff"/><rect x="627.67" y="313.83" width="22.42" height="22.42" fill="#bbbbbb"/><rect x="650.08" y="313.83" width="22.42" height="22.42" fill="#ebebeb"/><rect x="627.67" y="336.25" width="22.42" height="22.42" fill="#d0d0d0"/><rect x="0" y="358.6666666666667" width="44.833333333333336" height="44.833333333333336" fill="#ffffff"/><rect x="0" y="358.67" width="22.42" height="22.42" fill="#bdbdbd"/><rect x="22.42" y="358.67" width="22.42" height="22.42" fill="#f5affc"/><rect x="0" y="381.08" width="22.42" height="22.42" fill="#fbdefe"/><rect x="22.42" y="381.08" width="22.42" height="22.42" fill="#dedede"/><rect x="44.833333333333336" y="358.6666666666667" width="44.833333333333336" height="44.833333333333336" fill="#ffffff"/><rect x="44.83" y="358.67" width="22.42" height="22.42" fill="#ef78fa"/><rect x="67.25" y="358.67" width="22.42" height="22.42" fill="#f8c9fd"/><rect x="44.83" y="381.08" width="22.42" height="22.42" fill="#f4f4f4"/><rect x="67.25" y="381.08" width="22.42" height="22.42" fill="#fef8ff"/><rect x="89.66666666666667" y="358.6666666666667" width="44.833333333333336" height="44.833333333333336" fill="#ffffff"/><rect x="89.67" y="358.67" width="22.42" height="22.42" fill="#ed6af9"/><rect x="89.67" y="381.08" width="22.42" height="22.42" fill="#e6e6e6"/><rect x="112.08" y="381.08" width="22.42" height="22.42" fill="#dadada"/><rect x="134.5" y="358.6666666666667" width="44.833333333333336" height="44.833333333333336" fill="#ffffff"/><rect x="134.5" y="358.67" width="22.42" height="22.42" fill="#c8c8c8"/><rect x="156.92" y="358.67" width="22.42" height="22.42" fill="#f4a7fb"/><rect x="134.5" y="381.08" width="22.42" height="22.42" fill="#f9cffd"/><rect x="156.92" y="381.08" width="22.42" height="22.42" fill="#f8c6fd"/><rect x="179.33333333333334" y="358.6666666666667" width="44.833333333333336" height="44.833333333333336" fill="#ffffff"/><rect x="179.33" y="358.67" width="22.42" height="22.42" fill="#fbfbfb"/><rect x="201.75" y="358.67" width="22.42" height="22.42" fill="#c2c2c2"/><rect x="201.75" y="381.08" width="22.42" height="22.42" fill="#f6b1fc"/><rect x="448.33333333333337" y="358.6666666666667" width="44.833333333333336" height="44.833333333333336" fill="#ffffff"/><rect x="448.33" y="358.67" width="22.42" height="22.42" fill="#b7b7b7"/><rect x="448.33" y="381.08" width="22.42" height="22.42" fill="#f4a7fb"/><rect x="470.75" y="381.08" width="22.42" height="22.42" fill="#a7a7a7"/><rect x="538" y="358.6666666666667" width="44.833333333333336" height="44.833333333333336" fill="#ffffff"/><rect x="538" y="358.67" width="22.42" height="22.42" fill="#ec61f9"/><rect x="560.42" y="358.67" width="22.42" height="22.42" fill="#ef7dfa"/><rect x="538" y="381.08" width="22.42" height="22.42" fill="#f1f1f1"/><rect x="560.42" y="381.08" width="22.42" height="22.42" fill="#f18efa"/><rect x="582.8333333333334" y="358.6666666666667" width="44.833333333333336" height="44.833333333333336" fill="#ffffff"/><rect x="582.83" y="358.67" width="22.42" height="22.42" fill="#f399fb"/><rect x="605.25" y="358.67" width="22.42" height="22.42" fill="#d2d2d2"/><rect x="605.25" y="381.08" width="22.42" height="22.42" fill="#bcbcbc"/><rect x="627.6666666666667" y="358.6666666666667" width="44.833333333333336" height="44.833333333333336" fill="#ffffff"/><rect x="627.67" y="358.67" width="22.42" height="22.42" fill="#cbcbcb"/><rect x="650.08" y="358.67" width="22.42" height="22.42" fill="#f9cdfd"/><rect x="627.67" y="381.08" width="22.42" height="22.42" fill="#f7b9fc"/><rect x="672.5" y="358.6666666666667" width="44.833333333333336" height="44.833333333333336" fill="#ffffff"/><rect x="672.5" y="358.67" width="22.42" height="22.42" fill="#f6f6f6"/><rect x="694.92" y="358.67" width="22.42" height="22.42" fill="#e5e5e5"/><rect x="672.5" y="381.08" width="22.42" height="22.42" fill="#f8c2fd"/><rect x="0" y="403.5" width="44.833333333333336" height="44.833333333333336" fill="#ffffff"/><rect x="0" y="403.5" width="22.42" height="22.42" fill="#f7befc"/><rect x="22.42" y="403.5" width="22.42" height="22.42" fill="#ed6df9"/><rect x="0" y="425.92" width="22.42" height="22.42" fill="#f9cdfd"/><rect x="22.42" y="425.92" width="22.42" height="22.42" fill="#f4f4f4"/><rect x="44.833333333333336" y="403.5" width="44.833333333333336" height="44.833333333333336" fill="#ffffff"/><rect x="44.83" y="403.5" width="22.42" height="22.42" fill="#f295fb"/><rect x="67.25" y="403.5" width="22.42" height="22.42" fill="#e4e4e4"/><rect x="44.83" y="425.92" width="22.42" height="22.42" fill="#f5b0fc"/><rect x="67.25" y="425.92" width="22.42" height="22.42" fill="#e6e6e6"/><rect x="89.66666666666667" y="403.5" width="44.833333333333336" height="44.833333333333336" fill="#ffffff"/><rect x="89.67" y="403.5" width="22.42" height="22.42" fill="#f082fa"/><rect x="112.08" y="403.5" width="22.42" height="22.42" fill="#fcfcfc"/><rect x="89.67" y="425.92" width="22.42" height="22.42" fill="#b7b7b7"/><rect x="112.08" y="425.92" width="22.42" height="22.42" fill="#f6b6fc"/><rect x="134.5" y="403.5" width="44.833333333333336" height="44.833333333333336" fill="#ffffff"/><rect x="134.5" y="403.5" width="22.42" height="22.42" fill="#afafaf"/><rect x="156.92" y="403.5" width="22.42" height="22.42" fill="#d7d7d7"/><rect x="134.5" y="425.92" width="22.42" height="22.42" fill="#b3b3b3"/><rect x="156.92" y="425.92" width="22.42" height="22.42" fill="#ee74f9"/><rect x="179.33333333333334" y="403.5" width="44.833333333333336" height="44.833333333333336" fill="#ffffff"/><rect x="179.33" y="403.5" width="22.42" height="22.42" fill="#f6b9fc"/><rect x="201.75" y="403.5" width="22.42" height="22.42" fill="#c2c2c2"/><rect x="179.33" y="425.92" width="22.42" height="22.42" fill="#fad3fd"/><rect x="269" y="403.5" width="44.833333333333336" height="44.833333333333336" fill="#ffffff"/><rect x="269" y="403.5" width="22.42" height="22.42" fill="#ffffff"/><rect x="291.42" y="403.5" width="22.42" height="22.42" fill="#f9cefd"/><rect x="269" y="425.92" width="22.42" height="22.42" fill="#d0d0d0"/><rect x="291.42" y="425.92" width="22.42" height="22.42" fill="#ef7dfa"/><rect x="313.83333333333337" y="403.5" width="44.833333333333336" height="44.833333333333336" fill="#ffffff"/><rect x="313.83" y="403.5" width="22.42" height="22.42" fill="#f8f8f8"/><rect x="336.25" y="403.5" width="22.42" height="22.42" fill="#fbdefe"/><rect x="313.83" y="425.92" width="22.42" height="22.42" fill="#fdedfe"/><rect x="336.25" y="425.92" width="22.42" height="22.42" fill="#c7c7c7"/><rect x="358.6666666666667" y="403.5" width="44.833333333333336" height="44.833333333333336" fill="#ffffff"/><rect x="358.67" y="403.5" width="22.42" height="22.42" fill="#d4d4d4"/><rect x="381.08" y="403.5" width="22.42" height="22.42" fill="#dadada"/><rect x="358.67" y="425.92" width="22.42" height="22.42" fill="#fce4fe"/><rect x="403.5" y="403.5" width="44.833333333333336" height="44.833333333333336" fill="#ffffff"/><rect x="403.5" y="403.5" width="22.42" height="22.42" fill="#f9cefd"/><rect x="425.92" y="403.5" width="22.42" height="22.42" fill="#f5aefc"/><rect x="403.5" y="425.92" width="22.42" height="22.42" fill="#cfcfcf"/><rect x="425.92" y="425.92" width="22.42" height="22.42" fill="#bbbbbb"/><rect x="448.33333333333337" y="403.5" width="44.833333333333336" height="44.833333333333336" fill="#ffffff"/><rect x="448.33" y="403.5" width="22.42" height="22.42" fill="#b6b6b6"/><rect x="470.75" y="403.5" width="22.42" height="22.42" fill="#f8c8fd"/><rect x="448.33" y="425.92" width="22.42" height="22.42" fill="#f9ccfd"/><rect x="470.75" y="425.92" width="22.42" height="22.42" fill="#bfbfbf"/><rect x="493.1666666666667" y="403.5" width="44.833333333333336" height="44.833333333333336" fill="#ffffff"/><rect x="493.17" y="403.5" width="22.42" height="22.42" fill="#adadad"/><rect x="515.58" y="403.5" width="22.42" height="22.42" fill="#ed69f9"/><rect x="493.17" y="425.92" width="22.42" height="22.42" fill="#fce5fe"/><rect x="515.58" y="425.92" width="22.42" height="22.42" fill="#e7e7e7"/><rect x="538" y="403.5" width="44.833333333333336" height="44.833333333333336" fill="#ffffff"/><rect x="538" y="403.5" width="22.42" height="22.42" fill="#ef7ffa"/><rect x="560.42" y="403.5" width="22.42" height="22.42" fill="#b4b4b4"/><rect x="538" y="425.92" width="22.42" height="22.42" fill="#b0b0b0"/><rect x="560.42" y="425.92" width="22.42" height="22.42" fill="#d4d4d4"/><rect x="582.8333333333334" y="403.5" width="44.833333333333336" height="44.833333333333336" fill="#ffffff"/><rect x="582.83" y="403.5" width="22.42" height="22.42" fill="#f7c1fc"/><rect x="605.25" y="403.5" width="22.42" height="22.42" fill="#fffcff"/><rect x="582.83" y="425.92" width="22.42" height="22.42" fill="#ececec"/><rect x="605.25" y="425.92" width="22.42" height="22.42" fill="#d2d2d2"/><rect x="627.6666666666667" y="403.5" width="44.833333333333336" height="44.833333333333336" fill="#ffffff"/><rect x="627.67" y="403.5" width="22.42" height="22.42" fill="#bfbfbf"/><rect x="650.08" y="403.5" width="22.42" height="22.42" fill="#f9ccfd"/><rect x="627.67" y="425.92" width="22.42" height="22.42" fill="#f4f4f4"/><rect x="650.08" y="425.92" width="22.42" height="22.42" fill="#f1f1f1"/><rect x="672.5" y="403.5" width="44.833333333333336" height="44.833333333333336" fill="#ffffff"/><rect x="672.5" y="403.5" width="22.42" height="22.42" fill="#f1f1f1"/><rect x="694.92" y="403.5" width="22.42" height="22.42" fill="#ed67f9"/><rect x="672.5" y="425.92" width="22.42" height="22.42" fill="#f39cfb"/><rect x="694.92" y="425.92" width="22.42" height="22.42" fill="#fefefe"/><rect x="0" y="448.33333333333337" width="44.833333333333336" height="44.833333333333336" fill="#ffffff"/><rect x="0" y="448.33" width="22.42" height="22.42" fill="#ee70f9"/><rect x="22.42" y="448.33" width="22.42" height="22.42" fill="#dddddd"/><rect x="0" y="470.75" width="22.42" height="22.42" fill="#f39bfb"/><rect x="22.42" y="470.75" width="22.42" height="22.42" fill="#f39afb"/><rect x="44.833333333333336" y="448.33333333333337" width="44.833333333333336" height="44.833333333333336" fill="#ffffff"/><rect x="44.83" y="448.33" width="22.42" height="22.42" fill="#f6b5fc"/><rect x="67.25" y="448.33" width="22.42" height="22.42" fill="#dedede"/><rect x="44.83" y="470.75" width="22.42" height="22.42" fill="#fce6fe"/><rect x="67.25" y="470.75" width="22.42" height="22.42" fill="#ef7ffa"/><rect x="89.66666666666667" y="448.33333333333337" width="44.833333333333336" height="44.833333333333336" fill="#ffffff"/><rect x="89.67" y="448.33" width="22.42" height="22.42" fill="#b7b7b7"/><rect x="112.08" y="448.33" width="22.42" height="22.42" fill="#ec64f9"/><rect x="89.67" y="470.75" width="22.42" height="22.42" fill="#dedede"/><rect x="112.08" y="470.75" width="22.42" height="22.42" fill="#eb58f8"/><rect x="134.5" y="448.33333333333337" width="44.833333333333336" height="44.833333333333336" fill="#ffffff"/><rect x="134.5" y="448.33" width="22.42" height="22.42" fill="#e7e7e7"/><rect x="156.92" y="448.33" width="22.42" height="22.42" fill="#e6e6e6"/><rect x="134.5" y="470.75" width="22.42" height="22.42" fill="#ababab"/><rect x="156.92" y="470.75" width="22.42" height="22.42" fill="#ee72f9"/><rect x="179.33333333333334" y="448.33333333333337" width="44.833333333333336" height="44.833333333333336" fill="#ffffff"/><rect x="179.33" y="448.33" width="22.42" height="22.42" fill="#f7f7f7"/><rect x="201.75" y="448.33" width="22.42" height="22.42" fill="#a8a8a8"/><rect x="179.33" y="470.75" width="22.42" height="22.42" fill="#fef4ff"/><rect x="201.75" y="470.75" width="22.42" height="22.42" fill="#f296fb"/><rect x="224.16666666666669" y="448.33333333333337" width="44.833333333333336" height="44.833333333333336" fill="#ffffff"/><rect x="224.17" y="448.33" width="22.42" height="22.42" fill="#aeaeae"/><rect x="246.58" y="448.33" width="22.42" height="22.42" fill="#f9cafd"/><rect x="224.17" y="470.75" width="22.42" height="22.42" fill="#f4f4f4"/><rect x="246.58" y="470.75" width="22.42" height="22.42" fill="#dfdfdf"/><rect x="269" y="448.33333333333337" width="44.833333333333336" height="44.833333333333336" fill="#ffffff"/><rect x="269" y="448.33" width="22.42" height="22.42" fill="#f9c9fd"/><rect x="291.42" y="448.33" width="22.42" height="22.42" fill="#f7c1fc"/><rect x="269" y="470.75" width="22.42" height="22.42" fill="#aaaaaa"/><rect x="291.42" y="470.75" width="22.42" height="22.42" fill="#ef79fa"/><rect x="313.83333333333337" y="448.33333333333337" width="44.833333333333336" height="44.833333333333336" fill="#ffffff"/><rect x="313.83" y="448.33" width="22.42" height="22.42" fill="#fad6fd"/><rect x="336.25" y="448.33" width="22.42" height="22.42" fill="#c6c6c6"/><rect x="313.83" y="470.75" width="22.42" height="22.42" fill="#ee74f9"/><rect x="336.25" y="470.75" width="22.42" height="22.42" fill="#b8b8b8"/><rect x="358.6666666666667" y="448.33333333333337" width="44.833333333333336" height="44.833333333333336" fill="#ffffff"/><rect x="358.67" y="448.33" width="22.42" height="22.42" fill="#bababa"/><rect x="381.08" y="448.33" width="22.42" height="22.42" fill="#eb5af8"/><rect x="358.67" y="470.75" width="22.42" height="22.42" fill="#e0e0e0"/><rect x="381.08" y="470.75" width="22.42" height="22.42" fill="#f8c6fd"/><rect x="403.5" y="448.33333333333337" width="44.833333333333336" height="44.833333333333336" fill="#ffffff"/><rect x="403.5" y="448.33" width="22.42" height="22.42" fill="#ea53f8"/><rect x="425.92" y="448.33" width="22.42" height="22.42" fill="#cfcfcf"/><rect x="403.5" y="470.75" width="22.42" height="22.42" fill="#ed67f9"/><rect x="425.92" y="470.75" width="22.42" height="22.42" fill="#fad6fd"/><rect x="448.33333333333337" y="448.33333333333337" width="44.833333333333336" height="44.833333333333336" fill="#ffffff"/><rect x="448.33" y="448.33" width="22.42" height="22.42" fill="#aaaaaa"/><rect x="470.75" y="448.33" width="22.42" height="22.42" fill="#fce5fe"/><rect x="448.33" y="470.75" width="22.42" height="22.42" fill="#ed6af9"/><rect x="470.75" y="470.75" width="22.42" height="22.42" fill="#c7c7c7"/><rect x="493.1666666666667" y="448.33333333333337" width="44.833333333333336" height="44.833333333333336" fill="#ffffff"/><rect x="493.17" y="448.33" width="22.42" height="22.42" fill="#f9ccfd"/><rect x="515.58" y="448.33" width="22.42" height="22.42" fill="#e4e4e4"/><rect x="493.17" y="470.75" width="22.42" height="22.42" fill="#fdf1fe"/><rect x="515.58" y="470.75" width="22.42" height="22.42" fill="#f5f5f5"/><rect x="538" y="448.33333333333337" width="44.833333333333336" height="44.833333333333336" fill="#ffffff"/><rect x="538" y="448.33" width="22.42" height="22.42" fill="#e1e1e1"/><rect x="560.42" y="448.33" width="22.42" height="22.42" fill="#ed6cf9"/><rect x="538" y="470.75" width="22.42" height="22.42" fill="#f6b6fc"/><rect x="560.42" y="470.75" width="22.42" height="22.42" fill="#fad5fd"/><rect x="582.8333333333334" y="448.33333333333337" width="44.833333333333336" height="44.833333333333336" fill="#ffffff"/><rect x="582.83" y="448.33" width="22.42" height="22.42" fill="#fad6fd"/><rect x="605.25" y="448.33" width="22.42" height="22.42" fill="#f8c7fd"/><rect x="582.83" y="470.75" width="22.42" height="22.42" fill="#e6e6e6"/><rect x="605.25" y="470.75" width="22.42" height="22.42" fill="#eb59f8"/><rect x="627.6666666666667" y="448.33333333333337" width="44.833333333333336" height="44.833333333333336" fill="#ffffff"/><rect x="627.67" y="448.33" width="22.42" height="22.42" fill="#d1d1d1"/><rect x="650.08" y="448.33" width="22.42" height="22.42" fill="#bfbfbf"/><rect x="627.67" y="470.75" width="22.42" height="22.42" fill="#adadad"/><rect x="650.08" y="470.75" width="22.42" height="22.42" fill="#d8d8d8"/><rect x="672.5" y="448.33333333333337" width="44.833333333333336" height="44.833333333333336" fill="#ffffff"/><rect x="672.5" y="448.33" width="22.42" height="22.42" fill="#ed69f9"/><rect x="694.92" y="448.33" width="22.42" height="22.42" fill="#fef9ff"/><rect x="672.5" y="470.75" width="22.42" height="22.42" fill="#eb56f8"/><rect x="694.92" y="470.75" width="22.42" height="22.42" fill="#fadafd"/><rect x="0" y="493.1666666666667" width="44.833333333333336" height="44.833333333333336" fill="#ffffff"/><rect x="0" y="493.17" width="22.42" height="22.42" fill="#f5a9fc"/><rect x="22.42" y="493.17" width="22.42" height="22.42" fill="#dadada"/><rect x="0" y="515.58" width="22.42" height="22.42" fill="#f084fa"/><rect x="22.42" y="515.58" width="22.42" height="22.42" fill="#ed69f9"/><rect x="44.833333333333336" y="493.1666666666667" width="44.833333333333336" height="44.833333333333336" fill="#ffffff"/><rect x="44.83" y="493.17" width="22.42" height="22.42" fill="#a8a8a8"/><rect x="67.25" y="493.17" width="22.42" height="22.42" fill="#a8a8a8"/><rect x="44.83" y="515.58" width="22.42" height="22.42" fill="#ec66f9"/><rect x="67.25" y="515.58" width="22.42" height="22.42" fill="#f190fa"/><rect x="89.66666666666667" y="493.1666666666667" width="44.833333333333336" height="44.833333333333336" fill="#ffffff"/><rect x="89.67" y="493.17" width="22.42" height="22.42" fill="#ec61f9"/><rect x="112.08" y="493.17" width="22.42" height="22.42" fill="#c2c2c2"/><rect x="89.67" y="515.58" width="22.42" height="22.42" fill="#f5aefc"/><rect x="112.08" y="515.58" width="22.42" height="22.42" fill="#ee72f9"/><rect x="134.5" y="493.1666666666667" width="44.833333333333336" height="44.833333333333336" fill="#ffffff"/><rect x="134.5" y="493.17" width="22.42" height="22.42" fill="#fbddfe"/><rect x="156.92" y="493.17" width="22.42" height="22.42" fill="#ea55f8"/><rect x="134.5" y="515.58" width="22.42" height="22.42" fill="#d7d7d7"/><rect x="156.92" y="515.58" width="22.42" height="22.42" fill="#f6b7fc"/><rect x="179.33333333333334" y="493.1666666666667" width="44.833333333333336" height="44.833333333333336" fill="#ffffff"/><rect x="179.33" y="493.17" width="22.42" height="22.42" fill="#d5d5d5"/><rect x="201.75" y="493.17" width="22.42" height="22.42" fill="#f6b1fc"/><rect x="179.33" y="515.58" width="22.42" height="22.42" fill="#fffbff"/><rect x="201.75" y="515.58" width="22.42" height="22.42" fill="#afafaf"/><rect x="224.16666666666669" y="493.1666666666667" width="44.833333333333336" height="44.833333333333336" fill="#ffffff"/><rect x="224.17" y="493.17" width="22.42" height="22.42" fill="#d7d7d7"/><rect x="246.58" y="493.17" width="22.42" height="22.42" fill="#f4a5fb"/><rect x="224.17" y="515.58" width="22.42" height="22.42" fill="#ec62f9"/><rect x="246.58" y="515.58" width="22.42" height="22.42" fill="#c5c5c5"/><rect x="269" y="493.1666666666667" width="44.833333333333336" height="44.833333333333336" fill="#ffffff"/><rect x="269" y="493.17" width="22.42" height="22.42" fill="#fad8fd"/><rect x="291.42" y="493.17" width="22.42" height="22.42" fill="#c9c9c9"/><rect x="269" y="515.58" width="22.42" height="22.42" fill="#c8c8c8"/><rect x="291.42" y="515.58" width="22.42" height="22.42" fill="#fbfbfb"/><rect x="313.83333333333337" y="493.1666666666667" width="44.833333333333336" height="44.833333333333336" fill="#ffffff"/><rect x="313.83" y="493.17" width="22.42" height="22.42" fill="#dedede"/><rect x="336.25" y="493.17" width="22.42" height="22.42" fill="#d1d1d1"/><rect x="313.83" y="515.58" width="22.42" height="22.42" fill="#f9d1fd"/><rect x="336.25" y="515.58" width="22.42" height="22.42" fill="#d5d5d5"/><rect x="358.6666666666667" y="493.1666666666667" width="44.833333333333336" height="44.833333333333336" fill="#ffffff"/><rect x="358.67" y="493.17" width="22.42" height="22.42" fill="#bababa"/><rect x="381.08" y="493.17" width="22.42" height="22.42" fill="#d0d0d0"/><rect x="358.67" y="515.58" width="22.42" height="22.42" fill="#ececec"/><rect x="381.08" y="515.58" width="22.42" height="22.42" fill="#d8d8d8"/><rect x="403.5" y="493.1666666666667" width="44.833333333333336" height="44.833333333333336" fill="#ffffff"/><rect x="403.5" y="493.17" width="22.42" height="22.42" fill="#e3e3e3"/><rect x="425.92" y="493.17" width="22.42" height="22.42" fill="#b5b5b5"/><rect x="403.5" y="515.58" width="22.42" height="22.42" fill="#f9d1fd"/><rect x="425.92" y="515.58" width="22.42" height="22.42" fill="#afafaf"/><rect x="448.33333333333337" y="493.1666666666667" width="44.833333333333336" height="44.833333333333336" fill="#ffffff"/><rect x="448.33" y="493.17" width="22.42" height="22.42" fill="#fdf2fe"/><rect x="470.75" y="493.17" width="22.42" height="22.42" fill="#f085fa"/><rect x="448.33" y="515.58" width="22.42" height="22.42" fill="#fdedfe"/><rect x="470.75" y="515.58" width="22.42" height="22.42" fill="#f9ccfd"/><rect x="493.1666666666667" y="493.1666666666667" width="44.833333333333336" height="44.833333333333336" fill="#ffffff"/><rect x="493.17" y="493.17" width="22.42" height="22.42" fill="#f39ffb"/><rect x="515.58" y="493.17" width="22.42" height="22.42" fill="#fffeff"/><rect x="493.17" y="515.58" width="22.42" height="22.42" fill="#d4d4d4"/><rect x="515.58" y="515.58" width="22.42" height="22.42" fill="#c9c9c9"/><rect x="538" y="493.1666666666667" width="44.833333333333336" height="44.833333333333336" fill="#ffffff"/><rect x="538" y="493.17" width="22.42" height="22.42" fill="#f296fb"/><rect x="560.42" y="493.17" width="22.42" height="22.42" fill="#f39ffb"/><rect x="538" y="515.58" width="22.42" height="22.42" fill="#f081fa"/><rect x="560.42" y="515.58" width="22.42" height="22.42" fill="#ef7ffa"/><rect x="582.8333333333334" y="493.1666666666667" width="44.833333333333336" height="44.833333333333336" fill="#ffffff"/><rect x="582.83" y="493.17" width="22.42" height="22.42" fill="#a8a8a8"/><rect x="605.25" y="493.17" width="22.42" height="22.42" fill="#b8b8b8"/><rect x="582.83" y="515.58" width="22.42" height="22.42" fill="#afafaf"/><rect x="605.25" y="515.58" width="22.42" height="22.42" fill="#d2d2d2"/><rect x="627.6666666666667" y="493.1666666666667" width="44.833333333333336" height="44.833333333333336" fill="#ffffff"/><rect x="627.67" y="493.17" width="22.42" height="22.42" fill="#bebebe"/><rect x="650.08" y="493.17" width="22.42" height="22.42" fill="#bdbdbd"/><rect x="627.67" y="515.58" width="22.42" height="22.42" fill="#f7bbfc"/><rect x="650.08" y="515.58" width="22.42" height="22.42" fill="#f8c8fd"/><rect x="672.5" y="493.1666666666667" width="44.833333333333336" height="44.833333333333336" fill="#ffffff"/><rect x="672.5" y="493.17" width="22.42" height="22.42" fill="#fce7fe"/><rect x="694.92" y="493.17" width="22.42" height="22.42" fill="#fef5ff"/><rect x="672.5" y="515.58" width="22.42" height="22.42" fill="#ee74f9"/><rect x="694.92" y="515.58" width="22.42" height="22.42" fill="#c0c0c0"/></g></svg>