<?xml version="1.0" standalone="no"?><svg xmlns:xlink="http://www.w3.org/1999/xlink" xmlns="http://www.w3.org/2000/svg" viewBox="0 0 1000 750.0050420507029" preserveAspectRatio="xMaxYMax slice"><g transform="scale(1.260512675715467)"><rect x="0" y="0" width="793.3333333333334" height="595" fill="#ffffff"/><rect x="66.11111111111111" y="132.22222222222223" width="66.11111111111111" height="66.11111111111111" fill="#ffffff"/><rect x="198.33333333333334" y="132.22222222222223" width="66.11111111111111" height="66.11111111111111" fill="#ffffff"/><rect x="198.33" y="165.28" width="33.06" height="33.06" fill="#dae9ff"/><rect x="330.55555555555554" y="132.22222222222223" width="66.11111111111111" height="66.11111111111111" fill="#ffffff"/><rect x="363.61" y="165.28" width="33.06" height="33.06" fill="#9ac2ff"/><rect x="462.7777777777778" y="132.22222222222223" width="66.11111111111111" height="66.11111111111111" fill="#ffffff"/><rect x="462.78" y="132.22" width="33.06" height="33.06" fill="#ed6bf9"/><rect x="661.1111111111111" y="132.22222222222223" width="66.11111111111111" height="66.11111111111111" fill="#ffffff"/><rect x="694.17" y="132.22" width="33.06" height="33.06" fill="#d1e3ff"/><rect x="694.17" y="165.28" width="33.06" height="33.06" fill="#fdf1fe"/><rect x="727.2222222222223" y="132.22222222222223" width="66.11111111111111" height="66.11111111111111" fill="#ffffff"/><rect x="132.22222222222223" y="198.33333333333334" width="66.11111111111111" height="66.11111111111111" fill="#ffffff"/><rect x="330.55555555555554" y="198.33333333333334" width="66.11111111111111" height="66.11111111111111" fill="#ffffff"/><rect x="330.56" y="198.33" width="33.06" height="33.06" fill="#d5e6ff"/><rect x="363.61" y="198.33" width="33.06" height="33.06" fill="#fbdefe"/><rect x="363.61" y="231.39" width="33.06" height="33.06" fill="#4891ff"/><rect x="462.7777777777778" y="198.33333333333334" width="66.11111111111111" height="66.11111111111111" fill="#ffffff"/><rect x="462.78" y="231.39" width="33.06" height="33.06" fill="#f085fa"/><rect x="495.83" y="231.39" width="33.06" height="33.06" fill="#fbdbfe"/><rect x="528.8888888888889" y="198.33333333333334" width="66.11111111111111" height="66.11111111111111" fill="#ffffff"/><rect x="528.89" y="198.33" width="33.06" height="33.06" fill="#85b6ff"/><rect x="0" y="264.44444444444446" width="66.11111111111111" height="66.11111111111111" fill="#ffffff"/><rect x="0" y="297.5" width="33.06" height="33.06" fill="#a4c8ff"/><rect x="66.11111111111111" y="264.44444444444446" width="66.11111111111111" height="66.11111111111111" fill="#ffffff"/><rect x="66.11" y="264.44" width="33.06" height="33.06" fill="#f7faff"/><rect x="99.17" y="264.44" width="33.06" height="33.06" fill="#f8c8fd"/><rect x="99.17" y="297.5" width="33.06" height="33.06" fill="#f9cbfd"/><rect x="264.44444444444446" y="264.44444444444446" width="66.11111111111111" height="66.11111111111111" fill="#ffffff"/><rect x="264.44" y="264.44" width="33.06" height="33.06" fill="#fce4fe"/><rect x="297.5" y="264.44" width="33.06" height="33.06" fill="#f6b1fc"/><rect x="264.44" y="297.5" width="33.06" height="33.06" fill="#f295fb"/><rect x="330.55555555555554" y="264.44444444444446" width="66.11111111111111" height="66.11111111111111" fill="#ffffff"/><rect x="330.56" y="264.44" width="33.06" height="33.06" fill="#418dff"/><rect x="363.61" y="264.44" width="33.06" height="33.06" fill="#f7b9fc"/><rect x="330.56" y="297.5" width="33.06" height="33.06" fill="#8ebbff"/><rect x="363.61" y="297.5" width="33.06" height="33.06" fill="#c2dbff"/><rect x="528.8888888888889" y="264.44444444444446" width="66.11111111111111" height="66.11111111111111" fill="#ffffff"/><rect x="561.94" y="297.5" width="33.06" height="33.06" fill="#d9e8ff"/><rect x="595" y="264.44444444444446" width="66.11111111111111" height="66.11111111111111" fill="#ffffff"/><rect x="595" y="297.5" width="33.06" height="33.06" fill="#c4dcff"/><rect x="628.06" y="297.5" width="33.06" height="33.06" fill="#428eff"/><rect x="66.11111111111111" y="330.55555555555554" width="66.11111111111111" height="66.11111111111111" fill="#ffffff"/><rect x="66.11" y="330.56" width="33.06" height="33.06" fill="#dbe9ff"/><rect x="99.17" y="330.56" width="33.06" height="33.06" fill="#fafcff"/><rect x="132.22222222222223" y="330.55555555555554" width="66.11111111111111" height="66.11111111111111" fill="#ffffff"/><rect x="132.22" y="330.56" width="33.06" height="33.06" fill="#fceafe"/><rect x="132.22" y="363.61" width="33.06" height="33.06" fill="#f6b2fc"/><rect x="198.33333333333334" y="330.55555555555554" width="66.11111111111111" height="66.11111111111111" fill="#ffffff"/><rect x="231.39" y="363.61" width="33.06" height="33.06" fill="#2b80ff"/><rect x="264.44444444444446" y="330.55555555555554" width="66.11111111111111" height="66.11111111111111" fill="#ffffff"/><rect x="264.44" y="330.56" width="33.06" height="33.06" fill="#f6b3fc"/><rect x="297.5" y="330.56" width="33.06" height="33.06" fill="#f5aafc"/><rect x="264.44" y="363.61" width="33.06" height="33.06" fill="#ec5ff9"/><rect x="297.5" y="363.61" width="33.06" height="33.06" fill="#fcfdff"/><rect x="396.6666666666667" y="330.55555555555554" width="66.11111111111111" height="66.11111111111111" fill="#ffffff"/><rect x="396.67" y="330.56" width="33.06" height="33.06" fill="#cee2ff"/><rect x="429.72" y="330.56" width="33.06" height="33.06" fill="#eb57f8"/><rect x="396.67" y="363.61" width="33.06" height="33.06" fill="#77adff"/><rect x="462.7777777777778" y="330.55555555555554" width="66.11111111111111" height="66.11111111111111" fill="#ffffff"/><rect x="462.78" y="330.56" width="33.06" height="33.06" fill="#fce3fe"/><rect x="495.83" y="330.56" width="33.06" height="33.06" fill="#f8c6fd"/><rect x="528.8888888888889" y="330.55555555555554" width="66.11111111111111" height="66.11111111111111" fill="#ffffff"/><rect x="528.89" y="330.56" width="33.06" height="33.06" fill="#87b7ff"/><rect x="561.94" y="330.56" width="33.06" height="33.06" fill="#f8c2fd"/><rect x="528.89" y="363.61" width="33.06" height="33.06" fill="#cee2ff"/><rect x="561.94" y="363.61" width="33.06" height="33.06" fill="#6ca7ff"/><rect x="595" y="330.55555555555554" width="66.11111111111111" height="66.11111111111111" fill="#ffffff"/><rect x="595" y="363.61" width="33.06" height="33.06" fill="#6aa5ff"/><rect x="661.1111111111111" y="330.55555555555554" width="66.11111111111111" height="66.11111111111111" fill="#ffffff"/><rect x="694.17" y="330.56" width="33.06" height="33.06" fill="#eb5bf8"/><rect x="661.11" y="363.61" width="33.06" height="33.06" fill="#c2daff"/><rect x="727.2222222222223" y="330.55555555555554" width="66.11111111111111" height="66.11111111111111" fill="#ffffff"/><rect x="760.28" y="330.56" width="33.06" height="33.06" fill="#f4a7fb"/><rect x="727.22" y="363.61" width="33.06" height="33.06" fill="#f5adfc"/><rect x="0" y="396.6666666666667" width="66.11111111111111" height="66.11111111111111" fill="#ffffff"/><rect x="33.06" y="396.67" width="33.06" height="33.06" fill="#f7bffc"/><rect x="33.06" y="429.72" width="33.06" height="33.06" fill="#f4a7fb"/><rect x="66.11111111111111" y="396.6666666666667" width="66.11111111111111" height="66.11111111111111" fill="#ffffff"/><rect x="66.11" y="396.67" width="33.06" height="33.06" fill="#f4a4fb"/><rect x="66.11" y="429.72" width="33.06" height="33.06" fill="#f399fb"/><rect x="99.17" y="429.72" width="33.06" height="33.06" fill="#2b80ff"/><rect x="132.22222222222223" y="396.6666666666667" width="66.11111111111111" height="66.11111111111111" fill="#ffffff"/><rect x="165.28" y="396.67" width="33.06" height="33.06" fill="#5e9eff"/><rect x="132.22" y="429.72" width="33.06" height="33.06" fill="#fce4fe"/><rect x="165.28" y="429.72" width="33.06" height="33.06" fill="#f6b5fc"/><rect x="198.33333333333334" y="396.6666666666667" width="66.11111111111111" height="66.11111111111111" fill="#ffffff"/><rect x="231.39" y="396.67" width="33.06" height="33.06" fill="#fffeff"/><rect x="231.39" y="429.72" width="33.06" height="33.06" fill="#0b6dff"/><rect x="264.44444444444446" y="396.6666666666667" width="66.11111111111111" height="66.11111111111111" fill="#ffffff"/><rect x="264.44" y="396.67" width="33.06" height="33.06" fill="#fef9ff"/><rect x="264.44" y="429.72" width="33.06" height="33.06" fill="#ed6df9"/><rect x="297.5" y="429.72" width="33.06" height="33.06" fill="#f7befc"/><rect x="330.55555555555554" y="396.6666666666667" width="66.11111111111111" height="66.11111111111111" fill="#ffffff"/><rect x="330.56" y="396.67" width="33.06" height="33.06" fill="#f081fa"/><rect x="363.61" y="396.67" width="33.06" height="33.06" fill="#f18bfa"/><rect x="330.56" y="429.72" width="33.06" height="33.06" fill="#f9d2fd"/><rect x="363.61" y="429.72" width="33.06" height="33.06" fill="#1371ff"/><rect x="396.6666666666667" y="396.6666666666667" width="66.11111111111111" height="66.11111111111111" fill="#ffffff"/><rect x="396.67" y="396.67" width="33.06" height="33.06" fill="#fffcff"/><rect x="429.72" y="396.67" width="33.06" height="33.06" fill="#f9d1fd"/><rect x="396.67" y="429.72" width="33.06" height="33.06" fill="#2c80ff"/><rect x="429.72" y="429.72" width="33.06" height="33.06" fill="#ef7ffa"/><rect x="528.8888888888889" y="396.6666666666667" width="66.11111111111111" height="66.11111111111111" fill="#ffffff"/><rect x="528.89" y="396.67" width="33.06" height="33.06" fill="#ec61f9"/><rect x="561.94" y="396.67" width="33.06" height="33.06" fill="#599cff"/><rect x="561.94" y="429.72" width="33.06" height="33.06" fill="#c7ddff"/><rect x="595" y="396.6666666666667" width="66.11111111111111" height="66.11111111111111" fill="#ffffff"/><rect x="595" y="396.67" width="33.06" height="33.06" fill="#83b5ff"/><rect x="628.06" y="396.67" width="33.06" height="33.06" fill="#217aff"/><rect x="628.06" y="429.72" width="33.06" height="33.06" fill="#fffeff"/><rect x="661.1111111111111" y="396.6666666666667" width="66.11111111111111" height="66.11111111111111" fill="#ffffff"/><rect x="661.11" y="396.67" width="33.06" height="33.06" fill="#f5affc"/><rect x="661.11" y="429.72" width="33.06" height="33.06" fill="#b2d1ff"/><rect x="727.2222222222223" y="396.6666666666667" width="66.11111111111111" height="66.11111111111111" fill="#ffffff"/><rect x="760.28" y="396.67" width="33.06" height="33.06" fill="#4690ff"/><rect x="727.22" y="429.72" width="33.06" height="33.06" fill="#a9ccff"/><rect x="0" y="462.7777777777778" width="66.11111111111111" height="66.11111111111111" fill="#ffffff"/><rect x="0" y="462.78" width="33.06" height="33.06" fill="#fcfdff"/><rect x="33.06" y="462.78" width="33.06" height="33.06" fill="#afcfff"/><rect x="0" y="495.83" width="33.06" height="33.06" fill="#eff5ff"/><rect x="33.06" y="495.83" width="33.06" height="33.06" fill="#ed6af9"/><rect x="66.11111111111111" y="462.7777777777778" width="66.11111111111111" height="66.11111111111111" fill="#ffffff"/><rect x="66.11" y="462.78" width="33.06" height="33.06" fill="#ef7cfa"/><rect x="99.17" y="462.78" width="33.06" height="33.06" fill="#2e81ff"/><rect x="66.11" y="495.83" width="33.06" height="33.06" fill="#ee77f9"/><rect x="99.17" y="495.83" width="33.06" height="33.06" fill="#e1edff"/><rect x="132.22222222222223" y="462.7777777777778" width="66.11111111111111" height="66.11111111111111" fill="#ffffff"/><rect x="132.22" y="462.78" width="33.06" height="33.06" fill="#6ea8ff"/><rect x="132.22" y="495.83" width="33.06" height="33.06" fill="#a9ccff"/><rect x="165.28" y="495.83" width="33.06" height="33.06" fill="#7bb0ff"/><rect x="198.33333333333334" y="462.7777777777778" width="66.11111111111111" height="66.11111111111111" fill="#ffffff"/><rect x="198.33" y="462.78" width="33.06" height="33.06" fill="#f18dfa"/><rect x="231.39" y="462.78" width="33.06" height="33.06" fill="#eb59f8"/><rect x="198.33" y="495.83" width="33.06" height="33.06" fill="#b7d4ff"/><rect x="231.39" y="495.83" width="33.06" height="33.06" fill="#ed69f9"/><rect x="264.44444444444446" y="462.7777777777778" width="66.11111111111111" height="66.11111111111111" fill="#ffffff"/><rect x="264.44" y="462.78" width="33.06" height="33.06" fill="#e5efff"/><rect x="297.5" y="462.78" width="33.06" height="33.06" fill="#f4f9ff"/><rect x="264.44" y="495.83" width="33.06" height="33.06" fill="#fce6fe"/><rect x="297.5" y="495.83" width="33.06" height="33.06" fill="#fdebfe"/><rect x="330.55555555555554" y="462.7777777777778" width="66.11111111111111" height="66.11111111111111" fill="#ffffff"/><rect x="330.56" y="462.78" width="33.06" height="33.06" fill="#3f8cff"/><rect x="363.61" y="495.83" width="33.06" height="33.06" fill="#e9f2ff"/><rect x="462.7777777777778" y="462.7777777777778" width="66.11111111111111" height="66.11111111111111" fill="#ffffff"/><rect x="462.78" y="462.78" width="33.06" height="33.06" fill="#f4a1fb"/><rect x="495.83" y="462.78" width="33.06" height="33.06" fill="#82b4ff"/><rect x="462.78" y="495.83" width="33.06" height="33.06" fill="#ec66f9"/><rect x="495.83" y="495.83" width="33.06" height="33.06" fill="#f6b5fc"/><rect x="528.8888888888889" y="462.7777777777778" width="66.11111111111111" height="66.11111111111111" fill="#ffffff"/><rect x="528.89" y="462.78" width="33.06" height="33.06" fill="#f295fb"/><rect x="561.94" y="462.78" width="33.06" height="33.06" fill="#fad3fd"/><rect x="528.89" y="495.83" width="33.06" height="33.06" fill="#f6b5fc"/><rect x="561.94" y="495.83" width="33.06" height="33.06" fill="#fdf0fe"/><rect x="595" y="462.7777777777778" width="66.11111111111111" height="66.11111111111111" fill="#ffffff"/><rect x="595" y="462.78" width="33.06" height="33.06" fill="#a6caff"/><rect x="628.06" y="462.78" width="33.06" height="33.06" fill="#eef5ff"/><rect x="595" y="495.83" width="33.06" height="33.06" fill="#ee75f9"/><rect x="628.06" y="495.83" width="33.06" height="33.06" fill="#1975ff"/><rect x="661.1111111111111" y="462.7777777777778" width="66.11111111111111" height="66.11111111111111" fill="#ffffff"/><rect x="661.11" y="462.78" width="33.06" height="33.06" fill="#78aeff"/><rect x="694.17" y="462.78" width="33.06" height="33.06" fill="#3183ff"/><rect x="661.11" y="495.83" width="33.06" height="33.06" fill="#fbfdff"/><rect x="694.17" y="495.83" width="33.06" height="33.06" fill="#d3e5ff"/><rect x="727.2222222222223" y="462.7777777777778" width="66.11111111111111" height="66.11111111111111" fill="#ffffff"/><rect x="727.22" y="462.78" width="33.06" height="33.06" fill="#f39dfb"/><rect x="760.28" y="462.78" width="33.06" height="33.06" fill="#0a6cff"/><rect x="727.22" y="495.83" width="33.06" height="33.06" fill="#9fc6ff"/><rect x="760.28" y="495.83" width="33.06" height="33.06" fill="#ec64f9"/><rect x="0" y="528.8888888888889" width="66.11111111111111" height="66.11111111111111" fill="#ffffff"/><rect x="0" y="528.89" width="33.06" height="33.06" fill="#f7bbfc"/><rect x="33.06" y="528.89" width="33.06" height="33.06" fill="#74acff"/><rect x="0" y="561.94" width="33.06" height="33.06" fill="#ee73f9"/><rect x="33.06" y="561.94" width="33.06" height="33.06" fill="#fefaff"/><rect x="66.11111111111111" y="528.8888888888889" width="66.11111111111111" height="66.11111111111111" fill="#ffffff"/><rect x="66.11" y="528.89" width="33.06" height="33.06" fill="#f399fb"/><rect x="99.17" y="528.89" width="33.06" height="33.06" fill="#f8c8fd"/><rect x="66.11" y="561.94" width="33.06" height="33.06" fill="#ea52f8"/><rect x="99.17" y="561.94" width="33.06" height="33.06" fill="#ef7cfa"/><rect x="132.22222222222223" y="528.8888888888889" width="66.11111111111111" height="66.11111111111111" fill="#ffffff"/><rect x="132.22" y="528.89" width="33.06" height="33.06" fill="#1774ff"/><rect x="165.28" y="528.89" width="33.06" height="33.06" fill="#428eff"/><rect x="132.22" y="561.94" width="33.06" height="33.06" fill="#f8c1fd"/><rect x="165.28" y="561.94" width="33.06" height="33.06" fill="#f086fa"/><rect x="198.33333333333334" y="528.8888888888889" width="66.11111111111111" height="66.11111111111111" fill="#ffffff"/><rect x="198.33" y="528.89" width="33.06" height="33.06" fill="#f5abfc"/><rect x="231.39" y="528.89" width="33.06" height="33.06" fill="#f4a7fb"/><rect x="198.33" y="561.94" width="33.06" height="33.06" fill="#f5a9fc"/><rect x="231.39" y="561.94" width="33.06" height="33.06" fill="#8ab9ff"/><rect x="264.44444444444446" y="528.8888888888889" width="66.11111111111111" height="66.11111111111111" fill="#ffffff"/><rect x="264.44" y="528.89" width="33.06" height="33.06" fill="#c6ddff"/><rect x="297.5" y="528.89" width="33.06" height="33.06" fill="#98c1ff"/><rect x="264.44" y="561.94" width="33.06" height="33.06" fill="#f4a3fb"/><rect x="297.5" y="561.94" width="33.06" height="33.06" fill="#f8c2fd"/><rect x="330.55555555555554" y="528.8888888888889" width="66.11111111111111" height="66.11111111111111" fill="#ffffff"/><rect x="330.56" y="528.89" width="33.06" height="33.06" fill="#f5b1fc"/><rect x="363.61" y="528.89" width="33.06" height="33.06" fill="#0f6fff"/><rect x="330.56" y="561.94" width="33.06" height="33.06" fill="#fad6fd"/><rect x="363.61" y="561.94" width="33.06" height="33.06" fill="#ddebff"/><rect x="396.6666666666667" y="528.8888888888889" width="66.11111111111111" height="66.11111111111111" fill="#ffffff"/><rect x="396.67" y="528.89" width="33.06" height="33.06" fill="#c2daff"/><rect x="429.72" y="528.89" width="33.06" height="33.06" fill="#fdedfe"/><rect x="396.67" y="561.94" width="33.06" height="33.06" fill="#8bbaff"/><rect x="429.72" y="561.94" width="33.06" height="33.06" fill="#227aff"/><rect x="462.7777777777778" y="528.8888888888889" width="66.11111111111111" height="66.11111111111111" fill="#ffffff"/><rect x="462.78" y="528.89" width="33.06" height="33.06" fill="#a5c9ff"/><rect x="495.83" y="528.89" width="33.06" height="33.06" fill="#f7befc"/><rect x="462.78" y="561.94" width="33.06" height="33.06" fill="#589bff"/><rect x="495.83" y="561.94" width="33.06" height="33.06" fill="#eff5ff"/><rect x="528.8888888888889" y="528.8888888888889" width="66.11111111111111" height="66.11111111111111" fill="#ffffff"/><rect x="528.89" y="528.89" width="33.06" height="33.06" fill="#f0f6ff"/><rect x="561.94" y="528.89" width="33.06" height="33.06" fill="#f9fcff"/><rect x="528.89" y="561.94" width="33.06" height="33.06" fill="#fce8fe"/><rect x="561.94" y="561.94" width="33.06" height="33.06" fill="#ee72f9"/><rect x="595" y="528.8888888888889" width="66.11111111111111" height="66.11111111111111" fill="#ffffff"/><rect x="595" y="528.89" width="33.06" height="33.06" fill="#f9d2fd"/><rect x="628.06" y="528.89" width="33.06" height="33.06" fill="#f5b1fc"/><rect x="595" y="561.94" width="33.06" height="33.06" fill="#f8c2fd"/><rect x="628.06" y="561.94" width="33.06" height="33.06" fill="#6fa9ff"/><rect x="661.1111111111111" y="528.8888888888889" width="66.11111111111111" height="66.11111111111111" fill="#ffffff"/><rect x="661.11" y="528.89" width="33.06" height="33.06" fill="#f294fb"/><rect x="694.17" y="528.89" width="33.06" height="33.06" fill="#4d94ff"/><rect x="661.11" y="561.94" width="33.06" height="33.06" fill="#62a1ff"/><rect x="694.17" y="561.94" width="33.06" height="33.06" fill="#9dc4ff"/><rect x="727.2222222222223" y="528.8888888888889" width="66.11111111111111" height="66.11111111111111" fill="#ffffff"/><rect x="727.22" y="528.89" width="33.06" height="33.06" fill="#81b3ff"/><rect x="760.28" y="528.89" width="33.06" height="33.06" fill="#8cbaff"/><rect x="727.22" y="561.94" width="33.06" height="33.06" fill="#2e82ff"/><rect x="760.28" y="561.94" width="33.06" height="33.06" fill="#ef7cfa"/></g></svg>